<svg xmlns="http://www.w3.org/2000/svg" width="960" height="540" viewBox="0 0 960 540">
<rect width="100%" height="100%" fill="#ffffff"/>
<text x="28" y="38" font-family="Arial, Helvetica, sans-serif" font-size="24" font-weight="700" fill="#111827" text-anchor="start">AC temporal tracking across beats</text>
<text x="28" y="62" font-family="Arial, Helvetica, sans-serif" font-size="13" font-weight="400" fill="#64748b" text-anchor="start">Late-systolic AC candidates are stabilized using temporal continuity.</text>
<rect x="28" y="78" width="904" height="380" rx="12" fill="#f8fafc" stroke="#e5e7eb"/>
<rect x="50" y="105" width="860" height="190" rx="8" fill="white" stroke="#e5e7eb"/>
<text x="64" y="129" font-family="Arial, Helvetica, sans-serif" font-size="14" font-weight="700" fill="#111827" text-anchor="start">Beat-by-beat AC candidates</text>
<line x1="62" y1="269" x2="898" y2="269" stroke="#e5e7eb" stroke-width="1.0"/>
<polyline points="90.0,150.0 95.1,150.0 100.2,150.0 105.3,150.0 110.4,150.0 115.5,150.0 120.6,150.0 125.7,150.0 130.8,150.0 135.9,150.0 141.0,150.0 146.1,150.0 151.2,150.0 156.3,150.0 161.4,150.0 166.5,150.0 171.6,150.0 176.7,150.0 181.8,150.0 186.9,150.0 192.0,150.0 197.1,150.0 202.2,150.0 207.3,150.0 212.4,150.0 217.5,150.0 222.6,150.0 227.7,150.0 232.8,150.0 237.9,150.0 243.0,150.0 248.1,150.0 253.2,150.0 258.3,150.0 263.4,150.0 268.5,150.0 273.6,150.0 278.7,150.0 283.8,150.0 288.9,150.0 294.0,149.9 299.1,149.8 304.2,149.6 309.3,149.3 314.4,148.7 319.5,147.7 324.6,146.3 329.7,144.5 334.8,142.3 339.9,139.9 345.0,137.8 350.1,136.3 355.2,135.6 360.3,136.0 365.4,137.3 370.5,139.3 375.6,141.6 380.7,143.8 385.8,145.8 390.9,147.3 396.0,148.4 401.1,149.1 406.2,149.6 411.3,149.8 416.4,149.9 421.5,150.0 426.6,150.0 431.7,150.0 436.8,150.0 441.9,150.0 447.0,150.0 452.1,150.0 457.2,150.0 462.3,150.0 467.4,150.0 472.6,150.0 477.7,150.0 482.8,150.0 487.9,150.1 493.0,150.1 498.1,150.2 503.2,150.4 508.3,150.6 513.4,151.0 518.5,151.6 523.6,152.3 528.7,153.2 533.8,154.4 538.9,155.6 544.0,156.8 549.1,157.8 554.2,158.6 559.3,159.0 564.4,158.9 569.5,158.4 574.6,157.6 579.7,156.5 584.8,155.3 589.9,154.1 595.0,153.0 600.1,152.1 605.2,151.4 610.3,150.9 615.4,150.5 620.5,150.3 625.6,150.2 630.7,150.1 635.8,150.0 640.9,150.0 646.0,150.0 651.1,150.0 656.2,150.0 661.3,150.0 666.4,150.0 671.5,150.0 676.6,150.0 681.7,150.0 686.8,150.0 691.9,150.0 697.0,150.0 702.1,150.0 707.2,150.0 712.3,150.0 717.4,150.0 722.5,150.0 727.6,150.0 732.7,150.0 737.8,150.0 742.9,150.0 748.0,150.0 753.1,150.0 758.2,150.0 763.3,150.0 768.4,150.0 773.5,150.0 778.6,150.0 783.7,150.0 788.8,150.0 793.9,150.0 799.0,150.0 804.1,150.0 809.2,150.0 814.3,150.0 819.4,150.0 824.5,150.0 829.6,150.0 834.7,150.0 839.8,150.0 844.9,150.0 850.0,150.0" fill="none" stroke="#6b7280" stroke-width="1.5" stroke-linecap="round" stroke-linejoin="round"/><circle cx="561.2" cy="159.0" r="5" fill="#f97316" stroke="white" stroke-width="2"/>
<polyline points="90.0,175.0 95.1,175.0 100.2,175.0 105.3,175.0 110.4,175.0 115.5,175.0 120.6,175.0 125.7,175.0 130.8,175.0 135.9,175.0 141.0,175.0 146.1,175.0 151.2,175.0 156.3,175.0 161.4,175.0 166.5,175.0 171.6,175.0 176.7,175.0 181.8,175.0 186.9,175.0 192.0,175.0 197.1,175.0 202.2,175.0 207.3,175.0 212.4,175.0 217.5,175.0 222.6,175.0 227.7,175.0 232.8,175.0 237.9,175.0 243.0,175.0 248.1,175.0 253.2,175.0 258.3,175.0 263.4,175.0 268.5,175.0 273.6,175.0 278.7,175.0 283.8,175.0 288.9,175.0 294.0,174.9 299.1,174.8 304.2,174.6 309.3,174.3 314.4,173.7 319.5,172.7 324.6,171.3 329.7,169.5 334.8,167.3 339.9,164.9 345.0,162.8 350.1,161.3 355.2,160.6 360.3,161.0 365.4,162.3 370.5,164.3 375.6,166.6 380.7,168.8 385.8,170.8 390.9,172.3 396.0,173.4 401.1,174.1 406.2,174.6 411.3,174.8 416.4,174.9 421.5,175.0 426.6,175.0 431.7,175.0 436.8,175.0 441.9,175.0 447.0,175.0 452.1,175.0 457.2,175.0 462.3,175.0 467.4,175.0 472.6,175.0 477.7,175.0 482.8,175.0 487.9,175.0 493.0,175.0 498.1,175.1 503.2,175.1 508.3,175.2 513.4,175.4 518.5,175.6 523.6,176.1 528.7,176.6 533.8,177.4 538.9,178.4 544.0,179.5 549.1,180.7 554.2,181.9 559.3,182.9 564.4,183.6 569.5,184.0 574.6,183.9 579.7,183.3 584.8,182.5 589.9,181.3 595.0,180.1 600.1,178.9 605.2,177.9 610.3,177.0 615.4,176.3 620.5,175.8 625.6,175.5 630.7,175.3 635.8,175.2 640.9,175.1 646.0,175.0 651.1,175.0 656.2,175.0 661.3,175.0 666.4,175.0 671.5,175.0 676.6,175.0 681.7,175.0 686.8,175.0 691.9,175.0 697.0,175.0 702.1,175.0 707.2,175.0 712.3,175.0 717.4,175.0 722.5,175.0 727.6,175.0 732.7,175.0 737.8,175.0 742.9,175.0 748.0,175.0 753.1,175.0 758.2,175.0 763.3,175.0 768.4,175.0 773.5,175.0 778.6,175.0 783.7,175.0 788.8,175.0 793.9,175.0 799.0,175.0 804.1,175.0 809.2,175.0 814.3,175.0 819.4,175.0 824.5,175.0 829.6,175.0 834.7,175.0 839.8,175.0 844.9,175.0 850.0,175.0" fill="none" stroke="#6b7280" stroke-width="1.5" stroke-linecap="round" stroke-linejoin="round"/><circle cx="570.8" cy="184.0" r="5" fill="#f97316" stroke="white" stroke-width="2"/>
<polyline points="90.0,200.0 95.1,200.0 100.2,200.0 105.3,200.0 110.4,200.0 115.5,200.0 120.6,200.0 125.7,200.0 130.8,200.0 135.9,200.0 141.0,200.0 146.1,200.0 151.2,200.0 156.3,200.0 161.4,200.0 166.5,200.0 171.6,200.0 176.7,200.0 181.8,200.0 186.9,200.0 192.0,200.0 197.1,200.0 202.2,200.0 207.3,200.0 212.4,200.0 217.5,200.0 222.6,200.0 227.7,200.0 232.8,200.0 237.9,200.0 243.0,200.0 248.1,200.0 253.2,200.0 258.3,200.0 263.4,200.0 268.5,200.0 273.6,200.0 278.7,200.0 283.8,200.0 288.9,200.0 294.0,199.9 299.1,199.8 304.2,199.6 309.3,199.3 314.4,198.7 319.5,197.7 324.6,196.3 329.7,194.5 334.8,192.3 339.9,189.9 345.0,187.8 350.1,186.3 355.2,185.6 360.3,186.0 365.4,187.3 370.5,189.3 375.6,191.6 380.7,193.8 385.8,195.8 390.9,197.3 396.0,198.4 401.1,199.1 406.2,199.6 411.3,199.8 416.4,199.9 421.5,200.0 426.6,200.0 431.7,200.0 436.8,200.0 441.9,200.0 447.0,200.0 452.1,200.0 457.2,200.0 462.3,200.0 467.4,200.0 472.6,200.0 477.7,200.0 482.8,200.0 487.9,200.0 493.0,200.0 498.1,200.0 503.2,200.1 508.3,200.2 513.4,200.3 518.5,200.6 523.6,201.0 528.7,201.5 533.8,202.3 538.9,203.2 544.0,204.3 549.1,205.5 554.2,206.7 559.3,207.8 564.4,208.6 569.5,209.0 574.6,208.9 579.7,208.4 584.8,207.6 589.9,206.5 595.0,205.3 600.1,204.1 605.2,203.0 610.3,202.1 615.4,201.4 620.5,200.9 625.6,200.5 630.7,200.3 635.8,200.2 640.9,200.1 646.0,200.0 651.1,200.0 656.2,200.0 661.3,200.0 666.4,200.0 671.5,200.0 676.6,200.0 681.7,200.0 686.8,200.0 691.9,200.0 697.0,200.0 702.1,200.0 707.2,200.0 712.3,200.0 717.4,200.0 722.5,200.0 727.6,200.0 732.7,200.0 737.8,200.0 742.9,200.0 748.0,200.0 753.1,200.0 758.2,200.0 763.3,200.0 768.4,200.0 773.5,200.0 778.6,200.0 783.7,200.0 788.8,200.0 793.9,200.0 799.0,200.0 804.1,200.0 809.2,200.0 814.3,200.0 819.4,200.0 824.5,200.0 829.6,200.0 834.7,200.0 839.8,200.0 844.9,200.0 850.0,200.0" fill="none" stroke="#6b7280" stroke-width="1.5" stroke-linecap="round" stroke-linejoin="round"/><circle cx="571.6" cy="209.0" r="5" fill="#f97316" stroke="white" stroke-width="2"/>
<polyline points="90.0,225.0 95.1,225.0 100.2,225.0 105.3,225.0 110.4,225.0 115.5,225.0 120.6,225.0 125.7,225.0 130.8,225.0 135.9,225.0 141.0,225.0 146.1,225.0 151.2,225.0 156.3,225.0 161.4,225.0 166.5,225.0 171.6,225.0 176.7,225.0 181.8,225.0 186.9,225.0 192.0,225.0 197.1,225.0 202.2,225.0 207.3,225.0 212.4,225.0 217.5,225.0 222.6,225.0 227.7,225.0 232.8,225.0 237.9,225.0 243.0,225.0 248.1,225.0 253.2,225.0 258.3,225.0 263.4,225.0 268.5,225.0 273.6,225.0 278.7,225.0 283.8,225.0 288.9,225.0 294.0,224.9 299.1,224.8 304.2,224.6 309.3,224.3 314.4,223.7 319.5,222.7 324.6,221.3 329.7,219.5 334.8,217.3 339.9,214.9 345.0,212.8 350.1,211.3 355.2,210.6 360.3,211.0 365.4,212.3 370.5,214.3 375.6,216.6 380.7,218.8 385.8,220.8 390.9,222.3 396.0,223.4 401.1,224.1 406.2,224.6 411.3,224.8 416.4,224.9 421.5,225.0 426.6,225.0 431.7,225.0 436.8,225.0 441.9,225.0 447.0,225.0 452.1,225.0 457.2,225.0 462.3,225.0 467.4,225.0 472.6,225.0 477.7,225.0 482.8,225.0 487.9,225.0 493.0,225.1 498.1,225.2 503.2,225.3 508.3,225.5 513.4,225.9 518.5,226.4 523.6,227.0 528.7,227.9 533.8,229.0 538.9,230.2 544.0,231.4 549.1,232.5 554.2,233.4 559.3,233.9 564.4,234.0 569.5,233.6 574.6,232.9 579.7,231.8 584.8,230.7 589.9,229.5 595.0,228.3 600.1,227.4 605.2,226.6 610.3,226.0 615.4,225.6 620.5,225.4 625.6,225.2 630.7,225.1 635.8,225.1 640.9,225.0 646.0,225.0 651.1,225.0 656.2,225.0 661.3,225.0 666.4,225.0 671.5,225.0 676.6,225.0 681.7,225.0 686.8,225.0 691.9,225.0 697.0,225.0 702.1,225.0 707.2,225.0 712.3,225.0 717.4,225.0 722.5,225.0 727.6,225.0 732.7,225.0 737.8,225.0 742.9,225.0 748.0,225.0 753.1,225.0 758.2,225.0 763.3,225.0 768.4,225.0 773.5,225.0 778.6,225.0 783.7,225.0 788.8,225.0 793.9,225.0 799.0,225.0 804.1,225.0 809.2,225.0 814.3,225.0 819.4,225.0 824.5,225.0 829.6,225.0 834.7,225.0 839.8,225.0 844.9,225.0 850.0,225.0" fill="none" stroke="#6b7280" stroke-width="1.5" stroke-linecap="round" stroke-linejoin="round"/><circle cx="562.8" cy="234.0" r="5" fill="#f97316" stroke="white" stroke-width="2"/>
<polyline points="90.0,250.0 95.1,250.0 100.2,250.0 105.3,250.0 110.4,250.0 115.5,250.0 120.6,250.0 125.7,250.0 130.8,250.0 135.9,250.0 141.0,250.0 146.1,250.0 151.2,250.0 156.3,250.0 161.4,250.0 166.5,250.0 171.6,250.0 176.7,250.0 181.8,250.0 186.9,250.0 192.0,250.0 197.1,250.0 202.2,250.0 207.3,250.0 212.4,250.0 217.5,250.0 222.6,250.0 227.7,250.0 232.8,250.0 237.9,250.0 243.0,250.0 248.1,250.0 253.2,250.0 258.3,250.0 263.4,250.0 268.5,250.0 273.6,250.0 278.7,250.0 283.8,250.0 288.9,250.0 294.0,249.9 299.1,249.8 304.2,249.6 309.3,249.3 314.4,248.7 319.5,247.7 324.6,246.3 329.7,244.5 334.8,242.3 339.9,239.9 345.0,237.8 350.1,236.3 355.2,235.6 360.3,236.0 365.4,237.3 370.5,239.3 375.6,241.6 380.7,243.8 385.8,245.8 390.9,247.3 396.0,248.4 401.1,249.1 406.2,249.6 411.3,249.8 416.4,249.9 421.5,250.0 426.6,250.0 431.7,250.0 436.8,250.0 441.9,250.0 447.0,250.0 452.1,250.0 457.2,250.0 462.3,250.0 467.4,250.0 472.6,250.0 477.7,250.0 482.8,250.1 487.9,250.2 493.0,250.3 498.1,250.5 503.2,250.9 508.3,251.4 513.4,252.1 518.5,252.9 523.6,254.0 528.7,255.2 533.8,256.4 538.9,257.5 544.0,258.4 549.1,258.9 554.2,259.0 559.3,258.6 564.4,257.9 569.5,256.8 574.6,255.7 579.7,254.4 584.8,253.3 589.9,252.4 595.0,251.6 600.1,251.0 605.2,250.6 610.3,250.4 615.4,250.2 620.5,250.1 625.6,250.1 630.7,250.0 635.8,250.0 640.9,250.0 646.0,250.0 651.1,250.0 656.2,250.0 661.3,250.0 666.4,250.0 671.5,250.0 676.6,250.0 681.7,250.0 686.8,250.0 691.9,250.0 697.0,250.0 702.1,250.0 707.2,250.0 712.3,250.0 717.4,250.0 722.5,250.0 727.6,250.0 732.7,250.0 737.8,250.0 742.9,250.0 748.0,250.0 753.1,250.0 758.2,250.0 763.3,250.0 768.4,250.0 773.5,250.0 778.6,250.0 783.7,250.0 788.8,250.0 793.9,250.0 799.0,250.0 804.1,250.0 809.2,250.0 814.3,250.0 819.4,250.0 824.5,250.0 829.6,250.0 834.7,250.0 839.8,250.0 844.9,250.0 850.0,250.0" fill="none" stroke="#6b7280" stroke-width="1.5" stroke-linecap="round" stroke-linejoin="round"/><circle cx="552.6" cy="259.0" r="5" fill="#f97316" stroke="white" stroke-width="2"/><line x1="561.2" y1="130" x2="561.2" y2="260" stroke="#dc2626" stroke-width="2" stroke-dasharray="5,4"/><text x="569.2" y="138" font-family="Arial, Helvetica, sans-serif" font-size="12" font-weight="700" fill="#dc2626" text-anchor="start">tracked AC</text>
<rect x="50" y="325" width="860" height="70" rx="8" fill="white" stroke="#e5e7eb"/>
<text x="64" y="349" font-family="Arial, Helvetica, sans-serif" font-size="14" font-weight="700" fill="#111827" text-anchor="start">Tracking rule</text>
<line x1="62" y1="369" x2="898" y2="369" stroke="#e5e7eb" stroke-width="1.0"/>
<text x="80" y="365" font-family="Arial, Helvetica, sans-serif" font-size="16" font-weight="700" fill="#2563eb" text-anchor="start">AC timing uses current morphology plus previous/expected timing continuity when enabled.</text>
<rect x="44" y="472" width="420" height="34" rx="8" fill="#eff6ff" stroke="#bfdbfe"/>
<text x="58" y="495" font-family="Arial, Helvetica, sans-serif" font-size="13" font-weight="700" fill="#2563eb" text-anchor="start">AC temporal consistency</text>
<text x="488" y="492" font-family="Arial, Helvetica, sans-serif" font-size="12" font-weight="400" fill="#64748b" text-anchor="start">Figure: tracking avoids beat-to-beat jumps from weak notches.</text>
</svg>