<svg xmlns="http://www.w3.org/2000/svg" width="960" height="540" viewBox="0 0 960 540">
<rect width="100%" height="100%" fill="#ffffff"/>
<text x="28" y="38" font-family="Arial, Helvetica, sans-serif" font-size="24" font-weight="700" fill="#111827" text-anchor="start">Beat alignment before and after template correction</text>
<text x="28" y="62" font-family="Arial, Helvetica, sans-serif" font-size="13" font-weight="400" fill="#64748b" text-anchor="start">Cross-correlation/DTW-style checks align beat morphology around ECG R-peaks.</text>
<rect x="28" y="78" width="904" height="380" rx="12" fill="#f8fafc" stroke="#e5e7eb"/>
<rect x="50" y="105" width="390" height="140" rx="8" fill="white" stroke="#e5e7eb"/>
<text x="64" y="129" font-family="Arial, Helvetica, sans-serif" font-size="14" font-weight="700" fill="#111827" text-anchor="start">Before: lagged beats</text>
<line x1="62" y1="219" x2="428" y2="219" stroke="#e5e7eb" stroke-width="1.0"/>
<polyline points="70.0,175.2 72.8,173.6 75.5,172.4 78.3,171.7 81.1,171.4 83.9,171.4 86.6,171.7 89.4,172.2 92.2,172.8 95.0,173.3 97.7,173.8 100.5,174.0 103.3,174.0 106.1,173.8 108.8,173.3 111.6,172.7 114.4,172.0 117.1,171.3 119.9,170.7 122.7,170.3 125.5,170.2 128.2,170.5 131.0,171.3 133.8,172.5 136.6,174.2 139.3,176.3 142.1,178.8 144.9,181.4 147.6,184.2 150.4,186.8 153.2,189.3 156.0,191.5 158.7,193.2 161.5,194.4 164.3,195.1 167.1,195.1 169.8,194.6 172.6,193.7 175.4,192.3 178.2,190.6 180.9,188.8 183.7,186.9 186.5,185.1 189.2,183.5 192.0,182.2 194.8,181.1 197.6,180.4 200.3,179.9 203.1,179.7 205.9,179.7 208.7,179.8 211.4,179.8 214.2,179.7 217.0,179.4 219.7,178.9 222.5,178.0 225.3,176.9 228.1,175.4 230.8,173.8 233.6,172.0 236.4,170.2 239.2,168.5 241.9,167.0 244.7,165.9 247.5,165.2 250.3,165.0 253.0,165.4 255.8,166.4 258.6,167.9 261.3,169.9 264.1,172.2 266.9,174.9 269.7,177.6 272.4,180.3 275.2,182.9 278.0,185.2 280.8,187.1 283.5,188.6 286.3,189.6 289.1,190.1 291.8,190.2 294.6,189.9 297.4,189.4 300.2,188.6 302.9,187.9 305.7,187.1 308.5,186.5 311.3,186.1 314.0,185.9 316.8,186.0 319.6,186.2 322.4,186.7 325.1,187.2 327.9,187.7 330.7,188.1 333.4,188.2 336.2,188.1 339.0,187.5 341.8,186.6 344.5,185.2 347.3,183.3 350.1,181.2 352.9,178.7 355.6,176.1 358.4,173.5 361.2,171.0 363.9,168.7 366.7,166.8 369.5,165.4 372.3,164.6 375.0,164.3 377.8,164.7 380.6,165.5 383.4,166.8 386.1,168.5 388.9,170.5 391.7,172.6 394.5,174.6 397.2,176.6 400.0,178.3" fill="none" stroke="#6b7280" stroke-width="1.6" stroke-linecap="round" stroke-linejoin="round"/><polyline points="70.0,190.4 72.8,189.5 75.5,189.2 78.3,189.2 81.1,189.7 83.9,190.4 86.6,191.2 89.4,192.1 92.2,192.9 95.0,193.6 97.7,194.1 100.5,194.3 103.3,194.3 106.1,194.1 108.8,193.7 111.6,193.2 114.4,192.8 117.1,192.6 119.9,192.5 122.7,192.8 125.5,193.5 128.2,194.6 131.0,196.1 133.8,198.0 136.6,200.2 139.3,202.7 142.1,205.3 144.9,207.8 147.6,210.2 150.4,212.3 153.2,214.0 156.0,215.1 158.7,215.7 161.5,215.8 164.3,215.2 167.1,214.1 169.8,212.6 172.6,210.7 175.4,208.6 178.2,206.4 180.9,204.3 183.7,202.3 186.5,200.6 189.2,199.2 192.0,198.2 194.8,197.5 197.6,197.1 200.3,197.0 203.1,197.0 205.9,197.1 208.7,197.2 211.4,197.2 214.2,197.0 217.0,196.5 219.7,195.7 222.5,194.7 225.3,193.4 228.1,192.0 230.8,190.5 233.6,189.1 236.4,187.9 239.2,186.9 241.9,186.3 244.7,186.2 247.5,186.6 250.3,187.6 253.0,189.1 255.8,191.1 258.6,193.4 261.3,196.1 264.1,198.9 266.9,201.7 269.7,204.4 272.4,206.8 275.2,208.9 278.0,210.4 280.8,211.5 283.5,212.1 286.3,212.1 289.1,211.8 291.8,211.1 294.6,210.1 297.4,209.0 300.2,207.9 302.9,206.9 305.7,206.0 308.5,205.4 311.3,205.0 314.0,204.8 316.8,204.9 319.6,205.1 322.4,205.4 325.1,205.7 327.9,205.8 330.7,205.6 333.4,205.2 336.2,204.4 339.0,203.2 341.8,201.6 344.5,199.7 347.3,197.4 350.1,195.0 352.9,192.6 355.6,190.3 358.4,188.1 361.2,186.3 363.9,185.0 366.7,184.2 369.5,184.0 372.3,184.4 375.0,185.4 377.8,186.8 380.6,188.7 383.4,190.8 386.1,193.2 388.9,195.5 391.7,197.8 394.5,199.8 397.2,201.5 400.0,202.9" fill="none" stroke="#f97316" stroke-width="1.6" stroke-linecap="round" stroke-linejoin="round"/><polyline points="70.0,207.6 72.8,207.6 75.5,208.0 78.3,208.8 81.1,209.8 83.9,211.0 86.6,212.1 89.4,213.2 92.2,214.1 95.0,214.8 97.7,215.2 100.5,215.4 103.3,215.4 106.1,215.2 108.8,215.0 111.6,214.7 114.4,214.7 117.1,214.8 119.9,215.3 122.7,216.1 125.5,217.3 128.2,218.9 131.0,220.8 133.8,223.0 136.6,225.4 139.3,227.8 142.1,230.1 144.9,232.1 147.6,233.9 150.4,235.1 153.2,235.8 156.0,236.0 158.7,235.5 161.5,234.5 164.3,233.0 167.1,231.1 169.8,228.8 172.6,226.5 175.4,224.1 178.2,221.8 180.9,219.8 183.7,218.0 186.5,216.6 189.2,215.6 192.0,215.0 194.8,214.7 197.6,214.7 200.3,214.9 203.1,215.1 205.9,215.4 208.7,215.5 211.4,215.4 214.2,215.1 217.0,214.5 219.7,213.7 222.5,212.6 225.3,211.5 228.1,210.3 230.8,209.2 233.6,208.3 236.4,207.7 239.2,207.5 241.9,207.8 244.7,208.6 247.5,209.9 250.3,211.7 253.0,213.9 255.8,216.5 258.6,219.3 261.3,222.1 264.1,224.8 266.9,227.4 269.7,229.6 272.4,231.4 275.2,232.7 278.0,233.4 280.8,233.6 283.5,233.3 286.3,232.5 289.1,231.4 291.8,230.1 294.6,228.7 297.4,227.3 300.2,226.1 302.9,225.0 305.7,224.1 308.5,223.6 311.3,223.3 314.0,223.2 316.8,223.3 319.6,223.4 322.4,223.5 325.1,223.5 327.9,223.2 330.7,222.7 333.4,221.8 336.2,220.5 339.0,218.9 341.8,217.0 344.5,214.9 347.3,212.7 350.1,210.5 352.9,208.5 355.6,206.7 358.4,205.3 361.2,204.4 363.9,204.1 366.7,204.4 369.5,205.2 372.3,206.6 375.0,208.5 377.8,210.7 380.6,213.1 383.4,215.7 386.1,218.2 388.9,220.5 391.7,222.6 394.5,224.3 397.2,225.6 400.0,226.4" fill="none" stroke="#16a34a" stroke-width="1.6" stroke-linecap="round" stroke-linejoin="round"/>
<rect x="520" y="105" width="390" height="140" rx="8" fill="white" stroke="#e5e7eb"/>
<text x="534" y="129" font-family="Arial, Helvetica, sans-serif" font-size="14" font-weight="700" fill="#111827" text-anchor="start">After: template-aligned</text>
<line x1="532" y1="219" x2="898" y2="219" stroke="#e5e7eb" stroke-width="1.0"/>
<polyline points="540.0,173.7 542.8,172.3 545.5,171.3 548.3,170.8 551.1,170.7 553.9,170.9 556.6,171.4 559.4,172.0 562.2,172.7 565.0,173.3 567.7,173.7 570.5,174.0 573.3,174.0 576.1,173.7 578.8,173.3 581.6,172.7 584.4,172.1 587.1,171.5 589.9,171.0 592.7,170.8 595.5,171.0 598.2,171.5 601.0,172.5 603.8,174.0 606.6,175.9 609.3,178.1 612.1,180.7 614.9,183.3 617.6,186.0 620.4,188.6 623.2,190.9 626.0,192.8 628.7,194.2 631.5,195.1 634.3,195.4 637.1,195.1 639.8,194.3 642.6,193.1 645.4,191.5 648.2,189.6 650.9,187.7 653.7,185.7 656.5,183.9 659.2,182.3 662.0,181.0 664.8,180.1 667.6,179.4 670.3,179.1 673.1,178.9 675.9,179.0 678.7,179.0 681.4,179.0 684.2,178.9 687.0,178.5 689.7,177.9 692.5,177.0 695.3,175.8 698.1,174.3 700.8,172.7 703.6,171.0 706.4,169.3 709.2,167.8 711.9,166.5 714.7,165.7 717.5,165.3 720.3,165.5 723.0,166.2 725.8,167.5 728.6,169.3 731.3,171.5 734.1,174.0 736.9,176.8 739.7,179.6 742.4,182.2 745.2,184.7 748.0,186.8 750.8,188.6 753.5,189.8 756.3,190.5 759.1,190.8 761.8,190.7 764.6,190.2 767.4,189.5 770.2,188.6 772.9,187.7 775.7,186.9 778.5,186.3 781.3,185.9 784.0,185.7 786.8,185.8 789.6,186.0 792.4,186.4 795.1,186.9 797.9,187.3 800.7,187.5 803.4,187.5 806.2,187.2 809.0,186.4 811.8,185.2 814.5,183.6 817.3,181.7 820.1,179.4 822.9,176.9 825.6,174.3 828.4,171.8 831.2,169.4 833.9,167.4 836.7,165.8 839.5,164.7 842.3,164.2 845.0,164.3 847.8,165.0 850.6,166.2 853.4,167.8 856.1,169.7 858.9,171.8 861.7,173.9 864.5,176.0 867.2,178.0 870.0,179.6" fill="none" stroke="#6b7280" stroke-width="1.6" stroke-linecap="round" stroke-linejoin="round"/><polyline points="540.0,193.7 542.8,192.3 545.5,191.3 548.3,190.8 551.1,190.7 553.9,190.9 556.6,191.4 559.4,192.0 562.2,192.7 565.0,193.3 567.7,193.7 570.5,194.0 573.3,194.0 576.1,193.7 578.8,193.3 581.6,192.7 584.4,192.1 587.1,191.5 589.9,191.0 592.7,190.8 595.5,191.0 598.2,191.5 601.0,192.5 603.8,194.0 606.6,195.9 609.3,198.1 612.1,200.7 614.9,203.3 617.6,206.0 620.4,208.6 623.2,210.9 626.0,212.8 628.7,214.2 631.5,215.1 634.3,215.4 637.1,215.1 639.8,214.3 642.6,213.1 645.4,211.5 648.2,209.6 650.9,207.7 653.7,205.7 656.5,203.9 659.2,202.3 662.0,201.0 664.8,200.1 667.6,199.4 670.3,199.1 673.1,198.9 675.9,199.0 678.7,199.0 681.4,199.0 684.2,198.9 687.0,198.5 689.7,197.9 692.5,197.0 695.3,195.8 698.1,194.3 700.8,192.7 703.6,191.0 706.4,189.3 709.2,187.8 711.9,186.5 714.7,185.7 717.5,185.3 720.3,185.5 723.0,186.2 725.8,187.5 728.6,189.3 731.3,191.5 734.1,194.0 736.9,196.8 739.7,199.6 742.4,202.2 745.2,204.7 748.0,206.8 750.8,208.6 753.5,209.8 756.3,210.5 759.1,210.8 761.8,210.7 764.6,210.2 767.4,209.5 770.2,208.6 772.9,207.7 775.7,206.9 778.5,206.3 781.3,205.9 784.0,205.7 786.8,205.8 789.6,206.0 792.4,206.4 795.1,206.9 797.9,207.3 800.7,207.5 803.4,207.5 806.2,207.2 809.0,206.4 811.8,205.2 814.5,203.6 817.3,201.7 820.1,199.4 822.9,196.9 825.6,194.3 828.4,191.8 831.2,189.4 833.9,187.4 836.7,185.8 839.5,184.7 842.3,184.2 845.0,184.3 847.8,185.0 850.6,186.2 853.4,187.8 856.1,189.7 858.9,191.8 861.7,193.9 864.5,196.0 867.2,198.0 870.0,199.6" fill="none" stroke="#f97316" stroke-width="1.6" stroke-linecap="round" stroke-linejoin="round"/><polyline points="540.0,213.7 542.8,212.3 545.5,211.3 548.3,210.8 551.1,210.7 553.9,210.9 556.6,211.4 559.4,212.0 562.2,212.7 565.0,213.3 567.7,213.7 570.5,214.0 573.3,214.0 576.1,213.7 578.8,213.3 581.6,212.7 584.4,212.1 587.1,211.5 589.9,211.0 592.7,210.8 595.5,211.0 598.2,211.5 601.0,212.5 603.8,214.0 606.6,215.9 609.3,218.1 612.1,220.7 614.9,223.3 617.6,226.0 620.4,228.6 623.2,230.9 626.0,232.8 628.7,234.2 631.5,235.1 634.3,235.4 637.1,235.1 639.8,234.3 642.6,233.1 645.4,231.5 648.2,229.6 650.9,227.7 653.7,225.7 656.5,223.9 659.2,222.3 662.0,221.0 664.8,220.1 667.6,219.4 670.3,219.1 673.1,218.9 675.9,219.0 678.7,219.0 681.4,219.0 684.2,218.9 687.0,218.5 689.7,217.9 692.5,217.0 695.3,215.8 698.1,214.3 700.8,212.7 703.6,211.0 706.4,209.3 709.2,207.8 711.9,206.5 714.7,205.7 717.5,205.3 720.3,205.5 723.0,206.2 725.8,207.5 728.6,209.3 731.3,211.5 734.1,214.0 736.9,216.8 739.7,219.6 742.4,222.2 745.2,224.7 748.0,226.8 750.8,228.6 753.5,229.8 756.3,230.5 759.1,230.8 761.8,230.7 764.6,230.2 767.4,229.5 770.2,228.6 772.9,227.7 775.7,226.9 778.5,226.3 781.3,225.9 784.0,225.7 786.8,225.8 789.6,226.0 792.4,226.4 795.1,226.9 797.9,227.3 800.7,227.5 803.4,227.5 806.2,227.2 809.0,226.4 811.8,225.2 814.5,223.6 817.3,221.7 820.1,219.4 822.9,216.9 825.6,214.3 828.4,211.8 831.2,209.4 833.9,207.4 836.7,205.8 839.5,204.7 842.3,204.2 845.0,204.3 847.8,205.0 850.6,206.2 853.4,207.8 856.1,209.7 858.9,211.8 861.7,213.9 864.5,216.0 867.2,218.0 870.0,219.6" fill="none" stroke="#16a34a" stroke-width="1.6" stroke-linecap="round" stroke-linejoin="round"/>
<rect x="50" y="300" width="860" height="90" rx="8" fill="white" stroke="#e5e7eb"/>
<text x="64" y="324" font-family="Arial, Helvetica, sans-serif" font-size="14" font-weight="700" fill="#111827" text-anchor="start">Lag metric</text>
<line x1="62" y1="364" x2="898" y2="364" stroke="#e5e7eb" stroke-width="1.0"/>
<text x="80" y="350" font-family="Arial, Helvetica, sans-serif" font-size="16" font-weight="700" fill="#2563eb" text-anchor="start">lag* = argmax_τ corr(beat, template shifted by τ); DTW band limits large warps</text>
<rect x="44" y="472" width="420" height="34" rx="8" fill="#eff6ff" stroke="#bfdbfe"/>
<text x="58" y="495" font-family="Arial, Helvetica, sans-serif" font-size="13" font-weight="700" fill="#2563eb" text-anchor="start">beat_pre_sec / beat_post_sec</text>
<text x="488" y="492" font-family="Arial, Helvetica, sans-serif" font-size="12" font-weight="400" fill="#64748b" text-anchor="start">Figure: alignment improves morphology comparison but does not create ground truth.</text>
</svg>