<svg xmlns="http://www.w3.org/2000/svg" width="960" height="540" viewBox="0 0 960 540">
<rect width="100%" height="100%" fill="#ffffff"/>
<text x="28" y="38" font-family="Arial, Helvetica, sans-serif" font-size="24" font-weight="700" fill="#111827" text-anchor="start">Morphology event detector</text>
<text x="28" y="62" font-family="Arial, Helvetica, sans-serif" font-size="13" font-weight="400" fill="#64748b" text-anchor="start">curvature, prominence, extrema, and timing are combined</text>
<rect x="28" y="78" width="904" height="380" rx="12" fill="#f8fafc" stroke="#e5e7eb"/>
<rect x="50" y="105" width="390" height="145" rx="8" fill="white" stroke="#e5e7eb"/>
<text x="64" y="129" font-family="Arial, Helvetica, sans-serif" font-size="14" font-weight="700" fill="#111827" text-anchor="start">Input beat</text>
<line x1="62" y1="224" x2="428" y2="224" stroke="#e5e7eb" stroke-width="1.0"/>
<polyline points="80.0,210.0 82.1,210.0 84.3,210.0 86.4,210.0 88.6,210.0 90.7,210.0 92.9,210.0 95.0,210.0 97.2,210.0 99.3,210.0 101.5,210.0 103.6,210.0 105.8,210.0 107.9,210.0 110.1,210.0 112.2,210.0 114.4,210.0 116.5,209.9 118.7,209.9 120.8,209.7 123.0,209.6 125.1,209.3 127.2,209.0 129.4,208.4 131.5,207.7 133.7,206.7 135.8,205.4 138.0,203.7 140.1,201.8 142.3,199.4 144.4,196.9 146.6,194.1 148.7,191.3 150.9,188.7 153.0,186.3 155.2,184.4 157.3,183.1 159.5,182.5 161.6,182.7 163.8,183.6 165.9,185.2 168.1,187.3 170.2,189.7 172.3,192.3 174.5,194.6 176.6,196.5 178.8,197.7 180.9,197.9 183.1,196.8 185.2,194.4 187.4,190.5 189.5,185.4 191.7,179.4 193.8,173.1 196.0,167.4 198.1,162.9 200.3,160.3 202.4,160.1 204.6,162.3 206.7,166.6 208.9,172.4 211.0,179.1 213.2,185.8 215.3,191.9 217.4,197.2 219.6,201.4 221.7,204.5 223.9,206.6 226.0,208.0 228.2,208.9 230.3,209.4 232.5,209.7 234.6,209.9 236.8,209.9 238.9,210.0 241.1,210.0 243.2,210.1 245.4,210.1 247.5,210.2 249.7,210.4 251.8,210.7 254.0,211.1 256.1,211.7 258.3,212.6 260.4,213.7 262.6,215.3 264.7,217.2 266.8,219.4 269.0,221.8 271.1,224.4 273.3,226.8 275.4,228.9 277.6,230.4 279.7,231.2 281.9,231.0 284.0,229.9 286.2,227.8 288.3,224.8 290.5,221.2 292.6,217.2 294.8,213.0 296.9,208.8 299.1,204.9 301.2,201.3 303.4,198.4 305.5,196.0 307.7,194.4 309.8,193.5 311.9,193.2 314.1,193.5 316.2,194.4 318.4,195.7 320.5,197.3 322.7,199.0 324.8,200.7 327.0,202.4 329.1,204.0 331.3,205.4 333.4,206.5 335.6,207.5 337.7,208.2 339.9,208.8 342.0,209.2 344.2,209.5 346.3,209.7 348.5,209.8 350.6,209.9 352.8,209.9 354.9,210.0 357.0,210.0 359.2,210.0 361.3,210.0 363.5,210.0 365.6,210.0 367.8,210.0 369.9,210.0 372.1,210.0 374.2,210.0 376.4,210.0 378.5,210.0 380.7,210.0 382.8,210.0 385.0,210.0 387.1,210.0 389.3,210.0 391.4,210.0 393.6,210.0 395.7,210.0 397.9,210.0 400.0,210.0" fill="none" stroke="#6b7280" stroke-width="2.2" stroke-linecap="round" stroke-linejoin="round"/>
<rect x="520" y="105" width="390" height="145" rx="8" fill="white" stroke="#e5e7eb"/>
<text x="534" y="129" font-family="Arial, Helvetica, sans-serif" font-size="14" font-weight="700" fill="#111827" text-anchor="start">Detector response</text>
<line x1="532" y1="224" x2="898" y2="224" stroke="#e5e7eb" stroke-width="1.0"/>
<polyline points="550.0,210.0 552.1,210.0 554.3,210.0 556.4,210.0 558.6,210.0 560.7,210.0 562.9,210.0 565.0,210.0 567.2,210.0 569.3,210.0 571.5,210.0 573.6,210.0 575.8,210.0 577.9,210.0 580.1,210.0 582.2,210.0 584.4,210.0 586.5,210.0 588.7,210.0 590.8,210.0 593.0,210.0 595.1,210.0 597.2,210.0 599.4,210.0 601.5,210.0 603.7,210.0 605.8,210.0 608.0,210.0 610.1,210.0 612.3,210.0 614.4,210.0 616.6,210.0 618.7,210.0 620.9,210.0 623.0,210.0 625.2,210.0 627.3,210.0 629.5,210.0 631.6,210.0 633.8,210.0 635.9,210.0 638.1,210.0 640.2,210.0 642.3,209.9 644.5,209.8 646.6,209.6 648.8,209.1 650.9,208.0 653.1,206.2 655.2,203.2 657.4,198.7 659.5,192.4 661.7,184.5 663.8,175.7 666.0,167.1 668.1,160.0 670.3,155.8 672.4,155.3 674.6,158.6 676.7,165.2 678.9,173.6 681.0,182.4 683.2,190.6 685.3,197.3 687.4,202.3 689.6,205.6 691.7,207.7 693.9,208.9 696.0,209.5 698.2,209.8 700.3,209.9 702.5,210.0 704.6,210.0 706.8,210.0 708.9,210.0 711.1,210.0 713.2,210.0 715.4,210.0 717.5,209.9 719.7,209.8 721.8,209.6 724.0,209.3 726.1,208.7 728.3,207.7 730.4,206.2 732.6,203.9 734.7,200.7 736.8,196.5 739.0,191.4 741.1,185.7 743.3,179.8 745.4,174.2 747.6,169.7 749.7,166.8 751.9,166.0 754.0,167.4 756.2,170.7 758.3,175.6 760.5,181.3 762.6,187.2 764.8,192.8 766.9,197.7 769.1,201.6 771.2,204.5 773.4,206.6 775.5,208.0 777.7,208.9 779.8,209.4 781.9,209.7 784.1,209.9 786.2,209.9 788.4,210.0 790.5,210.0 792.7,210.0 794.8,210.0 797.0,210.0 799.1,210.0 801.3,210.0 803.4,210.0 805.6,210.0 807.7,210.0 809.9,210.0 812.0,210.0 814.2,210.0 816.3,210.0 818.5,210.0 820.6,210.0 822.8,210.0 824.9,210.0 827.0,210.0 829.2,210.0 831.3,210.0 833.5,210.0 835.6,210.0 837.8,210.0 839.9,210.0 842.1,210.0 844.2,210.0 846.4,210.0 848.5,210.0 850.7,210.0 852.8,210.0 855.0,210.0 857.1,210.0 859.3,210.0 861.4,210.0 863.6,210.0 865.7,210.0 867.9,210.0 870.0,210.0" fill="none" stroke="#2563eb" stroke-width="2.4" stroke-linecap="round" stroke-linejoin="round"/><circle cx="671.6" cy="155.0" r="5" fill="#dc2626" stroke="white" stroke-width="2"/>
<text x="671.6" y="145" font-family="Arial, Helvetica, sans-serif" font-size="12" font-weight="700" fill="#dc2626" text-anchor="middle">AO</text><circle cx="751.6" cy="166.0" r="5" fill="#f97316" stroke="white" stroke-width="2"/>
<text x="751.6" y="156" font-family="Arial, Helvetica, sans-serif" font-size="12" font-weight="700" fill="#f97316" text-anchor="middle">AC</text>
<rect x="50" y="305" width="860" height="85" rx="8" fill="white" stroke="#e5e7eb"/>
<text x="64" y="329" font-family="Arial, Helvetica, sans-serif" font-size="14" font-weight="700" fill="#111827" text-anchor="start">Output</text>
<line x1="62" y1="364" x2="898" y2="364" stroke="#e5e7eb" stroke-width="1.0"/>
<text x="80" y="352" font-family="Arial, Helvetica, sans-serif" font-size="16" font-weight="400" fill="#64748b" text-anchor="start">Candidate points are scored inside AO/AC windows; final use depends on fusion and SQI.</text>
<rect x="44" y="472" width="420" height="34" rx="8" fill="#eff6ff" stroke="#bfdbfe"/>
<text x="58" y="495" font-family="Arial, Helvetica, sans-serif" font-size="13" font-weight="700" fill="#2563eb" text-anchor="start">morph score</text>
<text x="488" y="492" font-family="Arial, Helvetica, sans-serif" font-size="12" font-weight="400" fill="#64748b" text-anchor="start">Figure: Morphology event detector produces candidate landmarks, not direct valve labels.</text>
</svg>