<svg xmlns="http://www.w3.org/2000/svg" width="960" height="540" viewBox="0 0 960 540">
<rect width="100%" height="100%" fill="#ffffff"/>
<text x="28" y="38" font-family="Arial, Helvetica, sans-serif" font-size="24" font-weight="700" fill="#111827" text-anchor="start">Detector candidate fusion</text>
<text x="28" y="62" font-family="Arial, Helvetica, sans-serif" font-size="13" font-weight="400" fill="#64748b" text-anchor="start">Multiple candidate points are aggregated by median/confidence-style fusion.</text>
<rect x="28" y="78" width="904" height="380" rx="12" fill="#f8fafc" stroke="#e5e7eb"/>
<rect x="50" y="105" width="860" height="170" rx="8" fill="white" stroke="#e5e7eb"/>
<text x="64" y="129" font-family="Arial, Helvetica, sans-serif" font-size="14" font-weight="700" fill="#111827" text-anchor="start">Overlay of detector candidates</text>
<line x1="62" y1="249" x2="898" y2="249" stroke="#e5e7eb" stroke-width="1.0"/>
<polyline points="90.0,220.0 95.1,220.0 100.2,220.0 105.3,220.0 110.4,220.0 115.5,220.0 120.6,220.0 125.7,220.0 130.8,220.0 135.9,220.0 141.0,220.0 146.1,220.0 151.2,220.0 156.3,220.0 161.4,220.0 166.5,220.0 171.6,220.0 176.7,220.0 181.8,220.0 186.9,220.0 192.0,220.0 197.1,220.0 202.2,220.0 207.3,220.0 212.4,220.0 217.5,220.0 222.6,220.0 227.7,220.0 232.8,220.0 237.9,220.0 243.0,220.0 248.1,220.0 253.2,220.0 258.3,220.0 263.4,220.0 268.5,220.0 273.6,220.0 278.7,220.0 283.8,220.0 288.9,220.0 294.0,220.0 299.1,219.9 304.2,219.8 309.3,219.5 314.4,219.1 319.5,218.3 324.6,217.0 329.7,215.1 334.8,212.2 339.9,208.3 345.0,203.3 350.1,197.3 355.2,190.7 360.3,184.0 365.4,177.9 370.5,173.2 375.6,170.5 380.7,170.2 385.8,172.3 390.9,176.6 396.0,182.4 401.1,189.1 406.2,195.8 411.3,201.9 416.4,207.2 421.5,211.4 426.6,214.5 431.7,216.6 436.8,218.0 441.9,218.9 447.0,219.4 452.1,219.7 457.2,219.9 462.3,220.0 467.4,220.0 472.6,220.1 477.7,220.2 482.8,220.3 487.9,220.5 493.0,220.8 498.1,221.3 503.2,222.1 508.3,223.1 513.4,224.5 518.5,226.2 523.6,228.3 528.7,230.6 533.8,233.2 538.9,235.8 544.0,238.2 549.1,240.3 554.2,241.7 559.3,242.4 564.4,242.3 569.5,241.4 574.6,239.8 579.7,237.7 584.8,235.2 589.9,232.6 595.0,230.1 600.1,227.7 605.2,225.7 610.3,224.1 615.4,222.8 620.5,221.9 625.6,221.2 630.7,220.7 635.8,220.4 640.9,220.3 646.0,220.1 651.1,220.1 656.2,220.0 661.3,220.0 666.4,220.0 671.5,220.0 676.6,220.0 681.7,220.0 686.8,220.0 691.9,220.0 697.0,220.0 702.1,220.0 707.2,220.0 712.3,220.0 717.4,220.0 722.5,220.0 727.6,220.0 732.7,220.0 737.8,220.0 742.9,220.0 748.0,220.0 753.1,220.0 758.2,220.0 763.3,220.0 768.4,220.0 773.5,220.0 778.6,220.0 783.7,220.0 788.8,220.0 793.9,220.0 799.0,220.0 804.1,220.0 809.2,220.0 814.3,220.0 819.4,220.0 824.5,220.0 829.6,220.0 834.7,220.0 839.8,220.0 844.9,220.0 850.0,220.0" fill="none" stroke="#6b7280" stroke-width="2.1" stroke-linecap="round" stroke-linejoin="round"/><circle cx="363.6" cy="177.5" r="5" fill="#2563eb" stroke="white" stroke-width="2"/>
<text x="363.59999999999997" y="167.5" font-family="Arial, Helvetica, sans-serif" font-size="12" font-weight="700" fill="#2563eb" text-anchor="middle">D1</text>
<circle cx="386.4" cy="170.0" r="5" fill="#16a34a" stroke="white" stroke-width="2"/>
<text x="386.40000000000003" y="160.0" font-family="Arial, Helvetica, sans-serif" font-size="12" font-weight="700" fill="#16a34a" text-anchor="middle">D2</text>
<circle cx="401.6" cy="180.0" r="5" fill="#f97316" stroke="white" stroke-width="2"/>
<text x="401.59999999999997" y="170.0" font-family="Arial, Helvetica, sans-serif" font-size="12" font-weight="700" fill="#f97316" text-anchor="middle">D3</text>
<circle cx="561.2" cy="242.5" r="5" fill="#7c3aed" stroke="white" stroke-width="2"/>
<text x="561.2" y="232.5" font-family="Arial, Helvetica, sans-serif" font-size="12" font-weight="700" fill="#7c3aed" text-anchor="middle">AC</text>
<circle cx="576.4" cy="237.5" r="5" fill="#2563eb" stroke="white" stroke-width="2"/>
<text x="576.4000000000001" y="227.5" font-family="Arial, Helvetica, sans-serif" font-size="12" font-weight="700" fill="#2563eb" text-anchor="middle">AC</text><circle cx="383.4" cy="162.0" r="5" fill="#dc2626" stroke="white" stroke-width="2"/>
<text x="383.36" y="152" font-family="Arial, Helvetica, sans-serif" font-size="12" font-weight="700" fill="#dc2626" text-anchor="middle">fused AO</text><circle cx="568.8" cy="242.0" r="5" fill="#dc2626" stroke="white" stroke-width="2"/>
<text x="568.8" y="232" font-family="Arial, Helvetica, sans-serif" font-size="12" font-weight="700" fill="#dc2626" text-anchor="middle">fused AC</text>
<rect x="50" y="315" width="860" height="80" rx="8" fill="white" stroke="#e5e7eb"/>
<text x="64" y="339" font-family="Arial, Helvetica, sans-serif" font-size="14" font-weight="700" fill="#111827" text-anchor="start">Fusion</text>
<line x1="62" y1="369" x2="898" y2="369" stroke="#e5e7eb" stroke-width="1.0"/>
<text x="80" y="360" font-family="Arial, Helvetica, sans-serif" font-size="16" font-weight="400" fill="#64748b" text-anchor="start">Final candidate timing reflects detector agreement and confidence; disagreement increases uncertainty.</text>
<rect x="44" y="472" width="420" height="34" rx="8" fill="#eff6ff" stroke="#bfdbfe"/>
<text x="58" y="495" font-family="Arial, Helvetica, sans-serif" font-size="13" font-weight="700" fill="#2563eb" text-anchor="start">median/confidence fusion</text>
<text x="488" y="492" font-family="Arial, Helvetica, sans-serif" font-size="12" font-weight="400" fill="#64748b" text-anchor="start">Figure: fusion reduces dependence on a single morphology rule.</text>
</svg>