<svg xmlns="http://www.w3.org/2000/svg" width="960" height="540" viewBox="0 0 960 540">
<rect width="100%" height="100%" fill="#ffffff"/>
<text x="28" y="38" font-family="Arial, Helvetica, sans-serif" font-size="24" font-weight="700" fill="#111827" text-anchor="start">Zheng-style seventh-power AO emphasis</text>
<text x="28" y="62" font-family="Arial, Helvetica, sans-serif" font-size="13" font-weight="400" fill="#64748b" text-anchor="start">AO-like component is enhanced by a high-order power transform.</text>
<rect x="28" y="78" width="904" height="380" rx="12" fill="#f8fafc" stroke="#e5e7eb"/>
<rect x="50" y="105" width="390" height="145" rx="8" fill="white" stroke="#e5e7eb"/>
<text x="64" y="129" font-family="Arial, Helvetica, sans-serif" font-size="14" font-weight="700" fill="#111827" text-anchor="start">AO-like reconstructed signal</text>
<line x1="62" y1="224" x2="428" y2="224" stroke="#e5e7eb" stroke-width="1.0"/>
<polyline points="80.0,210.0 82.1,210.0 84.3,210.0 86.4,210.0 88.6,210.0 90.7,210.0 92.9,210.0 95.0,210.0 97.2,210.0 99.3,210.0 101.5,210.0 103.6,210.0 105.8,210.0 107.9,210.0 110.1,210.0 112.2,210.0 114.4,210.0 116.5,210.0 118.7,210.0 120.8,210.0 123.0,210.0 125.1,210.0 127.2,210.0 129.4,210.0 131.5,210.0 133.7,210.0 135.8,210.0 138.0,210.0 140.1,210.0 142.3,210.0 144.4,210.0 146.6,210.0 148.7,210.0 150.9,210.0 153.0,210.0 155.2,210.0 157.3,210.0 159.5,210.0 161.6,210.0 163.8,210.0 165.9,210.0 168.1,210.0 170.2,209.9 172.3,209.9 174.5,209.8 176.6,209.6 178.8,209.4 180.9,209.0 183.1,208.5 185.2,207.8 187.4,206.8 189.5,205.6 191.7,203.9 193.8,202.0 196.0,199.6 198.1,197.0 200.3,194.1 202.4,191.1 204.6,188.2 206.7,185.6 208.9,183.3 211.0,181.7 213.2,180.8 215.3,180.8 217.4,181.5 219.6,183.0 221.7,185.1 223.9,187.6 226.0,190.4 228.2,193.3 230.3,196.2 232.5,198.8 234.6,201.1 236.8,203.0 238.9,204.5 241.1,205.7 243.2,206.5 245.4,207.0 247.5,207.3 249.7,207.4 251.8,207.3 254.0,207.1 256.1,206.8 258.3,206.5 260.4,206.0 262.6,205.6 264.7,205.1 266.8,204.5 269.0,204.0 271.1,203.4 273.3,202.8 275.4,202.3 277.6,201.7 279.7,201.2 281.9,200.7 284.0,200.2 286.2,199.8 288.3,199.5 290.5,199.2 292.6,199.0 294.8,198.8 296.9,198.8 299.1,198.8 301.2,198.9 303.4,199.0 305.5,199.3 307.7,199.6 309.8,200.0 311.9,200.4 314.1,200.9 316.2,201.4 318.4,201.9 320.5,202.5 322.7,203.0 324.8,203.6 327.0,204.2 329.1,204.7 331.3,205.3 333.4,205.8 335.6,206.3 337.7,206.7 339.9,207.1 342.0,207.5 344.2,207.8 346.3,208.2 348.5,208.4 350.6,208.7 352.8,208.9 354.9,209.1 357.0,209.2 359.2,209.4 361.3,209.5 363.5,209.6 365.6,209.7 367.8,209.7 369.9,209.8 372.1,209.8 374.2,209.9 376.4,209.9 378.5,209.9 380.7,209.9 382.8,210.0 385.0,210.0 387.1,210.0 389.3,210.0 391.4,210.0 393.6,210.0 395.7,210.0 397.9,210.0 400.0,210.0" fill="none" stroke="#6b7280" stroke-width="2.2" stroke-linecap="round" stroke-linejoin="round"/>
<rect x="520" y="105" width="390" height="145" rx="8" fill="white" stroke="#e5e7eb"/>
<text x="534" y="129" font-family="Arial, Helvetica, sans-serif" font-size="14" font-weight="700" fill="#111827" text-anchor="start">Seventh-power response</text>
<line x1="532" y1="224" x2="898" y2="224" stroke="#e5e7eb" stroke-width="1.0"/>
<polyline points="550.0,210.0 552.1,210.0 554.3,210.0 556.4,210.0 558.6,210.0 560.7,210.0 562.9,210.0 565.0,210.0 567.2,210.0 569.3,210.0 571.5,210.0 573.6,210.0 575.8,210.0 577.9,210.0 580.1,210.0 582.2,210.0 584.4,210.0 586.5,210.0 588.7,210.0 590.8,210.0 593.0,210.0 595.1,210.0 597.2,210.0 599.4,210.0 601.5,210.0 603.7,210.0 605.8,210.0 608.0,210.0 610.1,210.0 612.3,210.0 614.4,210.0 616.6,210.0 618.7,210.0 620.9,210.0 623.0,210.0 625.2,210.0 627.3,210.0 629.5,210.0 631.6,210.0 633.8,210.0 635.9,210.0 638.1,210.0 640.2,210.0 642.3,210.0 644.5,210.0 646.6,210.0 648.8,210.0 650.9,210.0 653.1,210.0 655.2,209.9 657.4,209.8 659.5,209.4 661.7,208.8 663.8,207.4 666.0,205.1 668.1,201.2 670.3,195.3 672.4,187.2 674.6,177.1 676.7,165.9 678.9,154.9 681.0,146.0 683.2,140.8 685.3,140.4 687.4,144.9 689.6,153.3 691.7,164.1 693.9,175.4 696.0,185.7 698.2,194.1 700.3,200.4 702.5,204.6 704.6,207.1 706.8,208.6 708.9,209.4 711.1,209.7 713.2,209.9 715.4,210.0 717.5,210.0 719.7,210.0 721.8,210.0 724.0,210.0 726.1,210.0 728.3,210.0 730.4,210.0 732.6,210.0 734.7,210.0 736.8,210.0 739.0,210.0 741.1,210.0 743.3,210.0 745.4,210.0 747.6,210.0 749.7,210.0 751.9,210.0 754.0,210.0 756.2,210.0 758.3,210.0 760.5,210.0 762.6,210.0 764.8,210.0 766.9,210.0 769.1,210.0 771.2,210.0 773.4,210.0 775.5,210.0 777.7,210.0 779.8,210.0 781.9,210.0 784.1,210.0 786.2,210.0 788.4,210.0 790.5,210.0 792.7,210.0 794.8,210.0 797.0,210.0 799.1,210.0 801.3,210.0 803.4,210.0 805.6,210.0 807.7,210.0 809.9,210.0 812.0,210.0 814.2,210.0 816.3,210.0 818.5,210.0 820.6,210.0 822.8,210.0 824.9,210.0 827.0,210.0 829.2,210.0 831.3,210.0 833.5,210.0 835.6,210.0 837.8,210.0 839.9,210.0 842.1,210.0 844.2,210.0 846.4,210.0 848.5,210.0 850.7,210.0 852.8,210.0 855.0,210.0 857.1,210.0 859.3,210.0 861.4,210.0 863.6,210.0 865.7,210.0 867.9,210.0 870.0,210.0" fill="none" stroke="#dc2626" stroke-width="2.5" stroke-linecap="round" stroke-linejoin="round"/><circle cx="684.4" cy="140.0" r="5" fill="#dc2626" stroke="white" stroke-width="2"/>
<text x="684.4" y="130" font-family="Arial, Helvetica, sans-serif" font-size="12" font-weight="700" fill="#dc2626" text-anchor="middle">AO</text>
<rect x="50" y="305" width="860" height="85" rx="8" fill="white" stroke="#e5e7eb"/>
<text x="64" y="329" font-family="Arial, Helvetica, sans-serif" font-size="14" font-weight="700" fill="#111827" text-anchor="start">Concept</text>
<line x1="62" y1="364" x2="898" y2="364" stroke="#e5e7eb" stroke-width="1.0"/>
<text x="80" y="352" font-family="Arial, Helvetica, sans-serif" font-size="16" font-weight="700" fill="#2563eb" text-anchor="start">p_AO(t)=|x_AO(t)|^7 emphasizes sharp AO-like peaks; adapted conceptually for documentation.</text>
<rect x="44" y="472" width="420" height="34" rx="8" fill="#eff6ff" stroke="#bfdbfe"/>
<text x="58" y="495" font-family="Arial, Helvetica, sans-serif" font-size="13" font-weight="700" fill="#2563eb" text-anchor="start">p_AO(t)=|x_AO(t)|^7</text>
<text x="488" y="492" font-family="Arial, Helvetica, sans-serif" font-size="12" font-weight="400" fill="#64748b" text-anchor="start">Figure: high-order transform increases contrast of sharp AO-like morphology.</text>
</svg>