<svg xmlns="http://www.w3.org/2000/svg" width="960" height="540" viewBox="0 0 960 540">
<rect width="100%" height="100%" fill="#ffffff"/>
<text x="28" y="38" font-family="Arial, Helvetica, sans-serif" font-size="24" font-weight="700" fill="#111827" text-anchor="start">ECG raw vs filtered example</text>
<text x="28" y="62" font-family="Arial, Helvetica, sans-serif" font-size="13" font-weight="400" fill="#64748b" text-anchor="start">Synthetic ECG-like signal showing drift/noise removal and R-peak preservation.</text>
<rect x="28" y="78" width="904" height="380" rx="12" fill="#f8fafc" stroke="#e5e7eb"/>
<rect x="50" y="105" width="265" height="135" rx="8" fill="white" stroke="#e5e7eb"/>
<text x="64" y="129" font-family="Arial, Helvetica, sans-serif" font-size="14" font-weight="700" fill="#111827" text-anchor="start">Input: raw ADCValue</text>
<line x1="62" y1="214" x2="303" y2="214" stroke="#e5e7eb" stroke-width="1.0"/>
<polyline points="68.0,193.5 69.9,184.8 71.8,184.6 73.8,190.8 75.7,193.4 77.6,188.2 79.5,181.6 81.5,182.4 83.4,190.1 85.3,195.4 87.2,192.0 89.2,184.8 91.1,183.4 93.0,189.3 94.9,194.2 96.9,190.6 98.8,181.9 100.7,177.8 102.6,182.3 104.6,188.1 106.5,186.9 108.4,180.0 110.3,176.7 112.3,182.7 114.2,192.2 116.1,195.9 118.0,192.5 120.0,190.9 121.9,197.7 123.8,209.0 125.7,214.7 127.7,211.8 129.6,207.8 131.5,210.9 133.4,219.0 135.4,222.6 137.3,216.9 139.2,208.2 141.1,205.8 143.1,210.1 145.0,212.2 146.9,205.7 148.8,195.4 150.7,191.2 152.7,195.2 154.6,199.4 156.5,196.1 158.4,187.8 160.4,184.2 162.3,189.2 164.2,195.8 166.1,195.2 168.1,187.7 170.0,182.6 171.9,185.6 173.8,191.4 175.8,190.6 177.7,181.7 179.6,173.4 181.5,173.2 183.5,177.8 185.4,177.6 187.3,169.6 189.2,161.2 191.2,161.0 193.1,167.8 195.0,172.2 196.9,169.0 198.9,163.9 200.8,166.2 202.7,176.3 204.6,185.2 206.6,185.9 208.5,182.4 210.4,183.9 212.3,193.1 214.3,202.0 216.2,202.4 218.1,196.2 220.0,193.3 221.9,198.2 223.9,204.6 225.8,203.4 227.7,195.1 229.6,189.0 231.6,191.3 233.5,197.6 235.4,198.2 237.3,191.4 239.3,185.4 241.2,187.9 243.1,195.8 245.0,199.3 247.0,194.5 248.9,188.1 250.8,188.9 252.7,195.6 254.7,199.0 256.6,193.1 258.5,183.6 260.4,179.8 262.4,183.0 264.3,184.7 266.2,177.8 268.1,166.2 270.1,159.9 272.0,162.1 273.9,165.6 275.8,162.0 277.8,153.3 279.7,148.8 281.6,153.8 283.5,161.9 285.5,164.0 287.4,159.4 289.3,157.0 291.2,163.2 293.2,173.5 295.1,178.1 297.0,174.3" fill="none" stroke="#6b7280" stroke-width="2.2" stroke-linecap="round" stroke-linejoin="round"/>
<text x="68" y="232" font-family="Arial, Helvetica, sans-serif" font-size="12" font-weight="400" fill="#64748b" text-anchor="start">baseline drift + high-frequency noise</text>
<rect x="348" y="105" width="265" height="135" rx="8" fill="white" stroke="#e5e7eb"/>
<text x="362" y="129" font-family="Arial, Helvetica, sans-serif" font-size="14" font-weight="700" fill="#111827" text-anchor="start">Processing: band-pass + notch</text>
<line x1="360" y1="214" x2="601" y2="214" stroke="#e5e7eb" stroke-width="1.0"/>
<polyline points="366.0,181.6 367.9,179.2 369.8,177.4 371.8,176.3 373.7,175.9 375.6,175.9 377.5,176.4 379.5,177.1 381.4,178.0 383.3,178.8 385.2,179.4 387.2,179.8 389.1,179.8 391.0,179.5 392.9,178.8 394.9,177.9 396.8,176.8 398.7,175.7 400.6,174.8 402.6,174.3 404.5,174.2 406.4,174.6 408.3,175.8 410.3,177.6 412.2,180.1 414.1,183.3 416.0,186.9 418.0,190.8 419.9,194.9 421.8,198.9 423.7,202.6 425.7,205.8 427.6,208.3 429.5,210.1 431.4,211.1 433.4,211.2 435.3,210.5 437.2,209.0 439.1,207.0 441.1,204.5 443.0,201.8 444.9,199.0 446.8,196.3 448.7,193.9 450.7,191.9 452.6,190.4 454.5,189.3 456.4,188.6 458.4,188.3 460.3,188.3 462.2,188.3 464.1,188.4 466.1,188.3 468.0,187.8 469.9,187.0 471.8,185.8 473.8,184.0 475.7,181.9 477.6,179.5 479.5,176.8 481.5,174.1 483.4,171.6 485.3,169.4 487.2,167.7 489.2,166.7 491.1,166.4 493.0,167.0 494.9,168.5 496.9,170.7 498.8,173.6 500.7,177.2 502.6,181.1 504.6,185.1 506.5,189.2 508.4,193.0 510.3,196.4 512.3,199.3 514.2,201.4 516.1,202.9 518.0,203.7 519.9,203.8 521.9,203.4 523.8,202.6 525.7,201.5 527.6,200.4 529.6,199.3 531.5,198.3 533.4,197.7 535.3,197.5 537.3,197.5 539.2,198.0 541.1,198.6 543.0,199.4 545.0,200.1 546.9,200.7 548.8,200.9 550.7,200.7 552.7,199.9 554.6,198.5 556.5,196.4 558.4,193.7 560.4,190.4 562.3,186.8 564.2,182.9 566.1,179.0 568.1,175.3 570.0,171.9 571.9,169.1 573.8,167.1 575.8,165.8 577.7,165.4 579.6,165.9 581.5,167.2 583.5,169.2 585.4,171.7 587.3,174.6 589.2,177.7 591.2,180.7 593.1,183.6 595.0,186.2" fill="none" stroke="#2563eb" stroke-width="2.2" stroke-linecap="round" stroke-linejoin="round"/>
<text x="366" y="232" font-family="Arial, Helvetica, sans-serif" font-size="12" font-weight="400" fill="#64748b" text-anchor="start">QRS band remains</text>
<rect x="646" y="105" width="265" height="135" rx="8" fill="white" stroke="#e5e7eb"/>
<text x="660" y="129" font-family="Arial, Helvetica, sans-serif" font-size="14" font-weight="700" fill="#111827" text-anchor="start">Output: R-peak candidates</text>
<line x1="658" y1="214" x2="899" y2="214" stroke="#e5e7eb" stroke-width="1.0"/>
<polyline points="664.0,181.6 665.9,179.2 667.8,177.4 669.8,176.3 671.7,175.9 673.6,175.9 675.5,176.4 677.5,177.1 679.4,178.0 681.3,178.8 683.2,179.4 685.2,179.8 687.1,179.8 689.0,179.5 690.9,178.8 692.9,177.9 694.8,176.8 696.7,175.7 698.6,174.8 700.6,174.3 702.5,174.2 704.4,174.6 706.3,175.8 708.3,177.6 710.2,180.1 712.1,183.3 714.0,186.9 716.0,190.8 717.9,194.9 719.8,198.9 721.7,202.6 723.7,205.8 725.6,208.3 727.5,210.1 729.4,211.1 731.4,211.2 733.3,210.5 735.2,209.0 737.1,207.0 739.1,204.5 741.0,201.8 742.9,199.0 744.8,196.3 746.7,193.9 748.7,191.9 750.6,190.4 752.5,189.3 754.4,188.6 756.4,188.3 758.3,188.3 760.2,188.3 762.1,188.4 764.1,188.3 766.0,187.8 767.9,187.0 769.8,185.8 771.8,184.0 773.7,181.9 775.6,179.5 777.5,176.8 779.5,174.1 781.4,171.6 783.3,169.4 785.2,167.7 787.2,166.7 789.1,166.4 791.0,167.0 792.9,168.5 794.9,170.7 796.8,173.6 798.7,177.2 800.6,181.1 802.6,185.1 804.5,189.2 806.4,193.0 808.3,196.4 810.3,199.3 812.2,201.4 814.1,202.9 816.0,203.7 817.9,203.8 819.9,203.4 821.8,202.6 823.7,201.5 825.6,200.4 827.6,199.3 829.5,198.3 831.4,197.7 833.3,197.5 835.3,197.5 837.2,198.0 839.1,198.6 841.0,199.4 843.0,200.1 844.9,200.7 846.8,200.9 848.7,200.7 850.7,199.9 852.6,198.5 854.5,196.4 856.4,193.7 858.4,190.4 860.3,186.8 862.2,182.9 864.1,179.0 866.1,175.3 868.0,171.9 869.9,169.1 871.8,167.1 873.8,165.8 875.7,165.4 877.6,165.9 879.5,167.2 881.5,169.2 883.4,171.7 885.3,174.6 887.2,177.7 889.2,180.7 891.1,183.6 893.0,186.2" fill="none" stroke="#16a34a" stroke-width="2.2" stroke-linecap="round" stroke-linejoin="round"/>
<circle cx="704.4" cy="174.6" r="5" fill="#dc2626" stroke="white" stroke-width="2"/>
<text x="704.4117647058823" y="164.63014629534752" font-family="Arial, Helvetica, sans-serif" font-size="12" font-weight="700" fill="#dc2626" text-anchor="middle">R</text>
<circle cx="777.5" cy="176.8" r="5" fill="#dc2626" stroke="white" stroke-width="2"/>
<text x="777.5378151260504" y="166.80732707155653" font-family="Arial, Helvetica, sans-serif" font-size="12" font-weight="700" fill="#dc2626" text-anchor="middle">R</text>
<circle cx="850.7" cy="199.9" r="5" fill="#dc2626" stroke="white" stroke-width="2"/>
<text x="850.6638655462185" y="189.9092061422023" font-family="Arial, Helvetica, sans-serif" font-size="12" font-weight="700" fill="#dc2626" text-anchor="middle">R</text>
<text x="664" y="232" font-family="Arial, Helvetica, sans-serif" font-size="12" font-weight="400" fill="#64748b" text-anchor="start">detected beat anchors</text>
<rect x="50" y="270" width="861" height="150" rx="8" fill="white" stroke="#e5e7eb"/>
<text x="64" y="294" font-family="Arial, Helvetica, sans-serif" font-size="14" font-weight="700" fill="#111827" text-anchor="start">Interpretation</text>
<line x1="62" y1="394" x2="899" y2="394" stroke="#e5e7eb" stroke-width="1.0"/>
<text x="70" y="326" font-family="Arial, Helvetica, sans-serif" font-size="16" font-weight="400" fill="#111827" text-anchor="start">Raw STM32 ADCValue and Smooth_ECG are cleaned for robust R-peak anchoring.</text><text x="70" y="354" font-family="Arial, Helvetica, sans-serif" font-size="15" font-weight="400" fill="#64748b" text-anchor="start">ECG is an electrical beat anchor, not AO/AC ground truth.</text>
<rect x="44" y="472" width="420" height="34" rx="8" fill="#eff6ff" stroke="#bfdbfe"/>
<text x="58" y="495" font-family="Arial, Helvetica, sans-serif" font-size="13" font-weight="700" fill="#2563eb" text-anchor="start">x_bp[n] = B_{fl,fh}{x[n]}</text>
<text x="488" y="492" font-family="Arial, Helvetica, sans-serif" font-size="12" font-weight="400" fill="#64748b" text-anchor="start">Figure: filtering improves the beat anchor while preserving QRS morphology.</text>
</svg>