<svg xmlns="http://www.w3.org/2000/svg" width="960" height="540" viewBox="0 0 960 540">
<rect width="100%" height="100%" fill="#ffffff"/>
<text x="28" y="38" font-family="Arial, Helvetica, sans-serif" font-size="24" font-weight="700" fill="#111827" text-anchor="start">Notch filter powerline suppression</text>
<text x="28" y="62" font-family="Arial, Helvetica, sans-serif" font-size="13" font-weight="400" fill="#64748b" text-anchor="start">A narrow stopband attenuates 50/60 Hz interference.</text>
<rect x="28" y="78" width="904" height="380" rx="12" fill="#f8fafc" stroke="#e5e7eb"/>
<rect x="50" y="105" width="390" height="140" rx="8" fill="white" stroke="#e5e7eb"/>
<text x="64" y="129" font-family="Arial, Helvetica, sans-serif" font-size="14" font-weight="700" fill="#111827" text-anchor="start">Spectrum before notch</text>
<line x1="62" y1="219" x2="428" y2="219" stroke="#e5e7eb" stroke-width="1.0"/>
<polyline points="75.0,205.9 77.3,205.9 79.6,205.8 81.9,205.7 84.2,205.6 86.5,205.4 88.8,205.1 91.1,204.6 93.4,204.0 95.7,203.2 98.0,202.1 100.3,200.8 102.6,199.1 104.9,197.0 107.2,194.6 109.5,191.9 111.8,188.8 114.1,185.4 116.4,182.0 118.7,178.5 121.0,175.2 123.3,172.2 125.6,169.6 127.9,167.7 130.3,166.4 132.6,166.0 134.9,166.4 137.2,167.6 139.5,169.5 141.8,172.0 144.1,175.1 146.4,178.4 148.7,181.8 151.0,185.3 153.3,188.6 155.6,191.7 157.9,194.5 160.2,196.9 162.5,199.0 164.8,200.7 167.1,202.1 169.4,203.2 171.7,204.0 174.0,204.6 176.3,205.0 178.6,205.4 180.9,205.6 183.2,205.7 185.5,205.8 187.8,205.9 190.1,205.9 192.4,206.0 194.7,206.0 197.0,206.0 199.3,206.0 201.6,206.0 203.9,206.0 206.2,206.0 208.5,206.0 210.8,206.0 213.1,206.0 215.4,206.0 217.7,206.0 220.0,206.0 222.3,206.0 224.6,206.0 226.9,206.0 229.2,206.0 231.5,206.0 233.8,206.0 236.2,206.0 238.5,206.0 240.8,206.0 243.1,206.0 245.4,206.0 247.7,206.0 250.0,206.0 252.3,205.9 254.6,205.7 256.9,204.8 259.2,202.6 261.5,197.6 263.8,188.2 266.1,173.9 268.4,156.7 270.7,141.6 273.0,134.2 275.3,137.8 277.6,150.7 279.9,167.9 282.2,183.6 284.5,194.7 286.8,201.2 289.1,204.2 291.4,205.5 293.7,205.9 296.0,206.0 298.3,206.0 300.6,206.0 302.9,206.0 305.2,206.0 307.5,206.0 309.8,206.0 312.1,206.0 314.4,206.0 316.7,206.0 319.0,206.0 321.3,206.0 323.6,206.0 325.9,206.0 328.2,206.0 330.5,206.0 332.8,206.0 335.1,206.0 337.4,206.0 339.7,206.0 342.1,206.0 344.4,206.0 346.7,206.0 349.0,206.0 351.3,206.0 353.6,206.0 355.9,206.0 358.2,206.0 360.5,206.0 362.8,206.0 365.1,206.0 367.4,206.0 369.7,206.0 372.0,206.0 374.3,206.0 376.6,206.0 378.9,206.0 381.2,206.0 383.5,206.0 385.8,206.0 388.1,206.0 390.4,206.0 392.7,206.0 395.0,206.0" fill="none" stroke="#2563eb" stroke-width="2" stroke-linecap="round" stroke-linejoin="round"/>
<rect x="263.79999999999995" y="130" width="19.200000000000017" height="80" fill="#f97316" opacity="0.18"/>
<rect x="520" y="105" width="390" height="140" rx="8" fill="white" stroke="#e5e7eb"/>
<text x="534" y="129" font-family="Arial, Helvetica, sans-serif" font-size="14" font-weight="700" fill="#111827" text-anchor="start">Spectrum after notch</text>
<line x1="532" y1="219" x2="898" y2="219" stroke="#e5e7eb" stroke-width="1.0"/>
<polyline points="545.0,205.9 547.3,205.9 549.6,205.8 551.9,205.7 554.2,205.6 556.5,205.4 558.8,205.1 561.1,204.6 563.4,204.0 565.7,203.2 568.0,202.1 570.3,200.8 572.6,199.1 574.9,197.0 577.2,194.6 579.5,191.9 581.8,188.8 584.1,185.4 586.4,182.0 588.7,178.5 591.0,175.2 593.3,172.2 595.6,169.6 597.9,167.7 600.3,166.4 602.6,166.0 604.9,166.4 607.2,167.6 609.5,169.5 611.8,172.0 614.1,175.1 616.4,178.4 618.7,181.8 621.0,185.3 623.3,188.6 625.6,191.7 627.9,194.5 630.2,196.9 632.5,199.0 634.8,200.7 637.1,202.1 639.4,203.2 641.7,204.0 644.0,204.6 646.3,205.0 648.6,205.4 650.9,205.6 653.2,205.7 655.5,205.8 657.8,205.9 660.1,205.9 662.4,206.0 664.7,206.0 667.0,206.0 669.3,206.0 671.6,206.0 673.9,206.0 676.2,206.0 678.5,206.0 680.8,206.0 683.1,206.0 685.4,206.0 687.7,206.0 690.0,206.0 692.3,206.0 694.6,206.0 696.9,206.0 699.2,206.0 701.5,206.0 703.8,206.0 706.2,206.0 708.5,206.0 710.8,206.0 713.1,206.0 715.4,206.0 717.7,206.0 720.0,206.0 722.3,206.0 724.6,206.0 726.9,205.8 729.2,205.5 731.5,204.9 733.8,203.6 736.1,201.7 738.4,199.4 740.7,197.4 743.0,196.4 745.3,196.9 747.6,198.6 749.9,200.9 752.2,203.0 754.5,204.5 756.8,205.4 759.1,205.8 761.4,205.9 763.7,206.0 766.0,206.0 768.3,206.0 770.6,206.0 772.9,206.0 775.2,206.0 777.5,206.0 779.8,206.0 782.1,206.0 784.4,206.0 786.7,206.0 789.0,206.0 791.3,206.0 793.6,206.0 795.9,206.0 798.2,206.0 800.5,206.0 802.8,206.0 805.1,206.0 807.4,206.0 809.7,206.0 812.1,206.0 814.4,206.0 816.7,206.0 819.0,206.0 821.3,206.0 823.6,206.0 825.9,206.0 828.2,206.0 830.5,206.0 832.8,206.0 835.1,206.0 837.4,206.0 839.7,206.0 842.0,206.0 844.3,206.0 846.6,206.0 848.9,206.0 851.2,206.0 853.5,206.0 855.8,206.0 858.1,206.0 860.4,206.0 862.7,206.0 865.0,206.0" fill="none" stroke="#2563eb" stroke-width="2" stroke-linecap="round" stroke-linejoin="round"/>
<rect x="733.8" y="130" width="19.200000000000017" height="80" fill="#f97316" opacity="0.18"/>
<rect x="50" y="285" width="860" height="120" rx="8" fill="white" stroke="#e5e7eb"/>
<text x="64" y="309" font-family="Arial, Helvetica, sans-serif" font-size="14" font-weight="700" fill="#111827" text-anchor="start">Signal effect</text>
<line x1="62" y1="379" x2="898" y2="379" stroke="#e5e7eb" stroke-width="1.0"/>
<polyline points="68.0,353.1 74.9,351.0 81.8,349.4 88.8,348.4 95.7,348.0 102.6,348.0 109.5,348.5 116.5,349.1 123.4,349.9 130.3,350.6 137.2,351.2 144.2,351.5 151.1,351.5 158.0,351.2 164.9,350.6 171.9,349.8 178.8,348.8 185.7,347.9 192.6,347.1 199.6,346.6 206.5,346.5 213.4,346.9 220.3,347.9 227.3,349.6 234.2,351.8 241.1,354.6 248.0,357.8 255.0,361.3 261.9,364.9 268.8,368.4 275.7,371.7 282.7,374.6 289.6,376.8 296.5,378.4 303.4,379.3 310.4,379.4 317.3,378.7 324.2,377.4 331.1,375.6 338.1,373.4 345.0,371.0 351.9,368.5 358.8,366.2 365.7,364.1 372.7,362.3 379.6,360.9 386.5,359.9 393.4,359.3 400.4,359.1 407.3,359.0 414.2,359.1 421.1,359.1 428.1,359.0 435.0,358.6 441.9,357.9 448.8,356.8 455.8,355.3 462.7,353.4 469.6,351.2 476.5,348.8 483.5,346.4 490.4,344.2 497.3,342.2 504.2,340.7 511.2,339.8 518.1,339.6 525.0,340.1 531.9,341.4 538.9,343.4 545.8,346.0 552.7,349.1 559.6,352.6 566.6,356.2 573.5,359.8 580.4,363.2 587.3,366.3 594.3,368.8 601.2,370.7 608.1,372.0 615.0,372.7 621.9,372.9 628.9,372.5 635.8,371.8 642.7,370.8 649.6,369.8 656.6,368.8 663.5,368.0 670.4,367.4 677.3,367.2 684.3,367.3 691.2,367.6 698.1,368.2 705.0,368.9 712.0,369.6 718.9,370.1 725.8,370.3 732.7,370.1 739.7,369.4 746.6,368.1 753.5,366.2 760.4,363.8 767.4,360.9 774.3,357.7 781.2,354.2 788.1,350.8 795.1,347.5 802.0,344.5 808.9,342.0 815.8,340.2 822.8,339.1 829.7,338.7 836.6,339.1 843.5,340.3 850.5,342.0 857.4,344.3 864.3,346.9 871.2,349.6 878.2,352.3 885.1,354.9 892.0,357.1" fill="none" stroke="#2563eb" stroke-width="2.2" stroke-linecap="round" stroke-linejoin="round"/>
<text x="68" y="397" font-family="Arial, Helvetica, sans-serif" font-size="12" font-weight="400" fill="#64748b" text-anchor="start">narrowband interference suppressed</text>
<rect x="44" y="472" width="420" height="34" rx="8" fill="#eff6ff" stroke="#bfdbfe"/>
<text x="58" y="495" font-family="Arial, Helvetica, sans-serif" font-size="13" font-weight="700" fill="#2563eb" text-anchor="start">x_notch[n] = N_{f0,Q}{x[n]}</text>
<text x="488" y="492" font-family="Arial, Helvetica, sans-serif" font-size="12" font-weight="400" fill="#64748b" text-anchor="start">Figure: the notch target is narrow so cardiac morphology is not the main stopband.</text>
</svg>