<svg xmlns="http://www.w3.org/2000/svg" width="960" height="540" viewBox="0 0 960 540">
<rect width="100%" height="100%" fill="#ffffff"/>
<text x="28" y="38" font-family="Arial, Helvetica, sans-serif" font-size="24" font-weight="700" fill="#111827" text-anchor="start">Hampel filter outlier replacement</text>
<text x="28" y="62" font-family="Arial, Helvetica, sans-serif" font-size="13" font-weight="400" fill="#64748b" text-anchor="start">Median/MAD gate suppresses isolated spikes before detection.</text>
<rect x="28" y="78" width="904" height="380" rx="12" fill="#f8fafc" stroke="#e5e7eb"/>
<rect x="50" y="105" width="390" height="140" rx="8" fill="white" stroke="#e5e7eb"/>
<text x="64" y="129" font-family="Arial, Helvetica, sans-serif" font-size="14" font-weight="700" fill="#111827" text-anchor="start">Input: spike-contaminated signal</text>
<line x1="62" y1="219" x2="428" y2="219" stroke="#e5e7eb" stroke-width="1.0"/>
<polyline points="68.0,184.5 71.0,182.0 73.9,180.1 76.9,179.0 79.9,178.5 82.9,178.5 85.8,179.0 88.8,179.8 91.8,180.7 94.8,181.5 97.7,182.2 100.7,182.6 103.7,182.6 106.7,182.2 109.6,181.5 112.6,180.6 115.6,179.5 118.6,178.4 121.5,177.4 124.5,176.8 127.5,176.7 130.5,177.2 133.4,178.4 136.4,180.3 139.4,182.9 142.4,186.2 145.3,189.9 148.3,194.0 151.3,198.2 154.3,202.3 157.2,206.2 160.2,209.5 163.2,144.4 166.2,146.3 169.1,147.2 172.1,147.3 175.1,214.4 178.1,212.9 181.0,210.7 184.0,208.2 187.0,205.4 190.0,202.5 192.9,199.7 195.9,197.2 198.9,195.2 201.9,193.5 204.8,192.4 207.8,191.7 210.8,191.4 213.8,191.4 216.7,191.4 219.7,191.5 222.7,191.3 225.7,190.9 228.6,190.1 231.6,188.8 234.6,187.0 237.6,184.8 240.5,182.2 243.5,179.5 246.5,176.7 249.5,174.1 252.4,171.8 255.4,170.0 258.4,169.0 261.4,168.7 264.3,169.3 267.3,170.8 270.3,173.1 273.3,176.2 276.2,179.8 279.2,183.9 282.2,188.1 285.2,192.3 288.1,196.3 291.1,199.8 294.1,202.8 297.1,205.0 300.0,206.6 303.0,207.4 306.0,207.5 309.0,207.1 311.9,206.2 314.9,205.1 317.9,203.9 320.9,202.7 323.8,257.2 326.8,256.6 329.8,256.3 332.8,201.0 335.7,201.4 338.7,202.1 341.7,202.9 344.7,203.6 347.6,204.2 350.6,204.5 353.6,204.3 356.6,203.4 359.5,201.9 362.5,199.8 365.5,196.9 368.5,193.6 371.4,189.8 374.4,185.8 377.4,181.7 380.4,177.9 383.3,174.4 386.3,171.5 389.3,169.4 392.3,168.1 395.2,167.7 398.2,168.2 401.2,169.5 404.2,171.5 407.1,174.2 410.1,177.2 413.1,180.4 416.1,183.5 419.0,186.5 422.0,189.2" fill="none" stroke="#6b7280" stroke-width="2.2" stroke-linecap="round" stroke-linejoin="round"/>
<circle cx="166.2" cy="146.3" r="5" fill="#f97316" stroke="white" stroke-width="2"/>
<text x="166.16806722689074" y="136.2572622219885" font-family="Arial, Helvetica, sans-serif" font-size="12" font-weight="700" fill="#f97316" text-anchor="middle">spike</text>
<circle cx="323.8" cy="257.2" r="5" fill="#f97316" stroke="white" stroke-width="2"/>
<text x="323.8319327731092" y="247.24311919375504" font-family="Arial, Helvetica, sans-serif" font-size="12" font-weight="700" fill="#f97316" text-anchor="middle">spike</text>
<text x="68" y="237" font-family="Arial, Helvetica, sans-serif" font-size="12" font-weight="400" fill="#64748b" text-anchor="start">outliers exceed local MAD</text>
<rect x="520" y="105" width="390" height="140" rx="8" fill="white" stroke="#e5e7eb"/>
<text x="534" y="129" font-family="Arial, Helvetica, sans-serif" font-size="14" font-weight="700" fill="#111827" text-anchor="start">Output: corrected samples</text>
<line x1="532" y1="219" x2="898" y2="219" stroke="#e5e7eb" stroke-width="1.0"/>
<polyline points="538.0,184.5 541.0,182.0 543.9,180.1 546.9,179.0 549.9,178.5 552.9,178.5 555.8,179.0 558.8,179.8 561.8,180.7 564.8,181.5 567.7,182.2 570.7,182.6 573.7,182.6 576.7,182.2 579.6,181.5 582.6,180.6 585.6,179.5 588.6,178.4 591.5,177.4 594.5,176.8 597.5,176.7 600.5,177.2 603.4,178.4 606.4,180.3 609.4,182.9 612.4,186.2 615.3,189.9 618.3,194.0 621.3,198.2 624.3,202.3 627.2,206.2 630.2,209.5 633.2,212.2 636.2,214.0 639.1,215.0 642.1,215.1 645.1,214.4 648.1,212.9 651.0,210.7 654.0,208.2 657.0,205.4 660.0,202.5 662.9,199.7 665.9,197.2 668.9,195.2 671.9,193.5 674.8,192.4 677.8,191.7 680.8,191.4 683.8,191.4 686.7,191.4 689.7,191.5 692.7,191.3 695.7,190.9 698.6,190.1 701.6,188.8 704.6,187.0 707.6,184.8 710.5,182.2 713.5,179.5 716.5,176.7 719.5,174.1 722.4,171.8 725.4,170.0 728.4,169.0 731.4,168.7 734.3,169.3 737.3,170.8 740.3,173.1 743.3,176.2 746.2,179.8 749.2,183.9 752.2,188.1 755.2,192.3 758.1,196.3 761.1,199.8 764.1,202.8 767.1,205.0 770.0,206.6 773.0,207.4 776.0,207.5 779.0,207.1 781.9,206.2 784.9,205.1 787.9,203.9 790.9,202.7 793.8,201.8 796.8,201.2 799.8,200.9 802.8,201.0 805.7,201.4 808.7,202.1 811.7,202.9 814.7,203.6 817.6,204.2 820.6,204.5 823.6,204.3 826.6,203.4 829.5,201.9 832.5,199.8 835.5,196.9 838.5,193.6 841.4,189.8 844.4,185.8 847.4,181.7 850.4,177.9 853.3,174.4 856.3,171.5 859.3,169.4 862.3,168.1 865.2,167.7 868.2,168.2 871.2,169.5 874.2,171.5 877.1,174.2 880.1,177.2 883.1,180.4 886.1,183.5 889.0,186.5 892.0,189.2" fill="none" stroke="#2563eb" stroke-width="2.2" stroke-linecap="round" stroke-linejoin="round"/>
<text x="538" y="237" font-family="Arial, Helvetica, sans-serif" font-size="12" font-weight="400" fill="#64748b" text-anchor="start">spikes replaced by local median</text>
<rect x="50" y="285" width="860" height="120" rx="8" fill="white" stroke="#e5e7eb"/>
<text x="64" y="309" font-family="Arial, Helvetica, sans-serif" font-size="14" font-weight="700" fill="#111827" text-anchor="start">Processing rule</text>
<line x1="62" y1="379" x2="898" y2="379" stroke="#e5e7eb" stroke-width="1.0"/>
<text x="78" y="335" font-family="Arial, Helvetica, sans-serif" font-size="18" font-weight="700" fill="#2563eb" text-anchor="start">|x_i - median(W_i)| &gt; k · 1.4826 · MAD(W_i)  → replace with median(W_i)</text>
<rect x="44" y="472" width="420" height="34" rx="8" fill="#eff6ff" stroke="#bfdbfe"/>
<text x="58" y="495" font-family="Arial, Helvetica, sans-serif" font-size="13" font-weight="700" fill="#2563eb" text-anchor="start">Hampel(W_i, k)</text>
<text x="488" y="492" font-family="Arial, Helvetica, sans-serif" font-size="12" font-weight="400" fill="#64748b" text-anchor="start">Figure: synthetic outliers are corrected without changing normal beat morphology.</text>
</svg>