<svg xmlns="http://www.w3.org/2000/svg" width="960" height="540" viewBox="0 0 960 540">
<rect width="100%" height="100%" fill="#ffffff"/>
<text x="28" y="38" font-family="Arial, Helvetica, sans-serif" font-size="24" font-weight="700" fill="#111827" text-anchor="start">Robust ECG R-peak detection</text>
<text x="28" y="62" font-family="Arial, Helvetica, sans-serif" font-size="13" font-weight="400" fill="#64748b" text-anchor="start">QRS-band signal, slope-energy concepts, and refractory guard produce beat anchors.</text>
<rect x="28" y="78" width="904" height="380" rx="12" fill="#f8fafc" stroke="#e5e7eb"/>
<rect x="50" y="105" width="860" height="155" rx="8" fill="white" stroke="#e5e7eb"/>
<text x="64" y="129" font-family="Arial, Helvetica, sans-serif" font-size="14" font-weight="700" fill="#111827" text-anchor="start">ECG and R-peaks</text>
<line x1="62" y1="234" x2="898" y2="234" stroke="#e5e7eb" stroke-width="1.0"/>
<polyline points="80.0,205.0 85.2,205.0 90.5,205.0 95.7,205.0 100.9,205.0 106.2,205.0 111.4,205.0 116.6,205.0 121.9,205.0 127.1,205.0 132.3,205.0 137.6,205.0 142.8,205.0 148.1,205.0 153.3,204.9 158.5,204.8 163.8,204.0 169.0,201.9 174.2,196.7 179.5,187.1 184.7,173.4 189.9,159.2 195.2,150.7 200.4,152.3 205.6,163.1 210.9,177.8 216.1,190.5 221.3,198.7 226.6,202.7 231.8,204.3 237.0,204.8 242.3,205.0 247.5,205.0 252.8,205.0 258.0,205.0 263.2,205.0 268.5,205.0 273.7,205.0 278.9,205.0 284.2,205.0 289.4,205.0 294.6,205.0 299.9,205.0 305.1,205.0 310.3,205.0 315.6,204.8 320.8,204.1 326.0,201.9 331.3,195.9 336.5,183.9 341.7,166.2 347.0,148.3 352.2,139.2 357.4,144.3 362.7,160.5 367.9,179.0 373.2,193.0 378.4,200.6 383.6,203.7 388.9,204.7 394.1,204.9 399.3,205.0 404.6,205.0 409.8,205.0 415.0,205.0 420.3,205.0 425.5,205.0 430.7,205.0 436.0,205.0 441.2,205.0 446.4,205.0 451.7,205.0 456.9,205.0 462.1,205.0 467.4,205.0 472.6,205.0 477.9,204.8 483.1,204.1 488.3,202.2 493.6,197.4 498.8,188.2 504.0,174.7 509.3,160.3 514.5,151.1 519.7,151.7 525.0,161.9 530.2,176.5 535.4,189.5 540.7,198.1 545.9,202.5 551.1,204.3 556.4,204.8 561.6,205.0 566.8,205.0 572.1,205.0 577.3,205.0 582.6,205.0 587.8,205.0 593.0,205.0 598.3,205.0 603.5,205.0 608.7,205.0 614.0,205.0 619.2,205.0 624.4,205.0 629.7,205.0 634.9,205.0 640.1,205.0 645.4,205.0 650.6,204.8 655.8,204.3 661.1,202.4 666.3,197.2 671.5,186.6 676.8,170.7 682.0,154.0 687.2,144.8 692.5,148.6 697.7,163.0 703.0,180.1 708.2,193.3 713.4,200.6 718.7,203.7 723.9,204.7 729.1,204.9 734.4,205.0 739.6,205.0 744.8,205.0 750.1,205.0 755.3,205.0 760.5,205.0 765.8,205.0 771.0,205.0 776.2,205.0 781.5,205.0 786.7,205.0 791.9,205.0 797.2,205.0 802.4,205.0 807.7,205.0 812.9,205.0 818.1,205.0 823.4,205.0 828.6,205.0 833.8,205.0 839.1,205.0 844.3,205.0 849.5,205.0 854.8,205.0 860.0,205.0" fill="none" stroke="#2563eb" stroke-width="2.5" stroke-linecap="round" stroke-linejoin="round"/><circle cx="197.0" cy="150.0" r="5" fill="#dc2626" stroke="white" stroke-width="2"/>
<text x="197.0" y="140" font-family="Arial, Helvetica, sans-serif" font-size="12" font-weight="700" fill="#dc2626" text-anchor="middle">R</text>
<circle cx="353.0" cy="139.0" r="5" fill="#dc2626" stroke="white" stroke-width="2"/>
<text x="353.0" y="129.0" font-family="Arial, Helvetica, sans-serif" font-size="12" font-weight="700" fill="#dc2626" text-anchor="middle">R</text>
<circle cx="516.8" cy="150.0" r="5" fill="#dc2626" stroke="white" stroke-width="2"/>
<text x="516.8000000000001" y="140" font-family="Arial, Helvetica, sans-serif" font-size="12" font-weight="700" fill="#dc2626" text-anchor="middle">R</text>
<circle cx="688.4" cy="144.5" r="5" fill="#dc2626" stroke="white" stroke-width="2"/>
<text x="688.4" y="134.5" font-family="Arial, Helvetica, sans-serif" font-size="12" font-weight="700" fill="#dc2626" text-anchor="middle">R</text><line x1="353.0" y1="122" x2="438.8" y2="122" stroke="#f97316" stroke-width="3"/><text x="395.90000000000003" y="114" font-family="Arial, Helvetica, sans-serif" font-size="12" font-weight="700" fill="#f97316" text-anchor="middle">refractory</text>
<rect x="50" y="300" width="860" height="90" rx="8" fill="white" stroke="#e5e7eb"/>
<text x="64" y="324" font-family="Arial, Helvetica, sans-serif" font-size="14" font-weight="700" fill="#111827" text-anchor="start">Scoring</text>
<line x1="62" y1="364" x2="898" y2="364" stroke="#e5e7eb" stroke-width="1.0"/>
<text x="80" y="350" font-family="Arial, Helvetica, sans-serif" font-size="17" font-weight="700" fill="#2563eb" text-anchor="start">score = amplitude + slope + local energy + prominence, with RR/refractory guards</text>
<rect x="44" y="472" width="420" height="34" rx="8" fill="#eff6ff" stroke="#bfdbfe"/>
<text x="58" y="495" font-family="Arial, Helvetica, sans-serif" font-size="13" font-weight="700" fill="#2563eb" text-anchor="start">R_i anchors beats</text>
<text x="488" y="492" font-family="Arial, Helvetica, sans-serif" font-size="12" font-weight="400" fill="#64748b" text-anchor="start">Figure: the R-peak detector creates alignment anchors, not valve-event labels.</text>
</svg>