<svg xmlns="http://www.w3.org/2000/svg" width="960" height="540" viewBox="0 0 960 540">
<rect width="100%" height="100%" fill="#ffffff"/>
<text x="28" y="38" font-family="Arial, Helvetica, sans-serif" font-size="24" font-weight="700" fill="#111827" text-anchor="start">FFT-domain motion suppression</text>
<text x="28" y="62" font-family="Arial, Helvetica, sans-serif" font-size="13" font-weight="400" fill="#64748b" text-anchor="start">Low-frequency motion bands are attenuated before inverse FFT reconstruction.</text>
<rect x="28" y="78" width="904" height="380" rx="12" fill="#f8fafc" stroke="#e5e7eb"/>
<rect x="50" y="105" width="260" height="135" rx="8" fill="white" stroke="#e5e7eb"/>
<text x="64" y="129" font-family="Arial, Helvetica, sans-serif" font-size="14" font-weight="700" fill="#111827" text-anchor="start">FFT before</text>
<line x1="62" y1="214" x2="298" y2="214" stroke="#e5e7eb" stroke-width="1.0"/>
<polyline points="75.0,201.2 76.5,198.5 78.0,194.7 79.5,189.6 81.0,183.4 82.6,176.0 84.1,168.0 85.6,159.8 87.1,152.1 88.6,145.8 90.1,141.5 91.6,139.8 93.1,140.9 94.6,144.6 96.2,150.5 97.7,157.9 99.2,166.0 100.7,174.1 102.2,181.7 103.7,188.2 105.2,193.5 106.7,197.5 108.2,200.4 109.7,202.2 111.3,203.3 112.8,203.7 114.3,203.5 115.8,202.8 117.3,201.6 118.8,200.0 120.3,197.9 121.8,195.3 123.3,192.4 124.9,189.3 126.4,186.1 127.9,183.0 129.4,180.3 130.9,178.2 132.4,176.9 133.9,176.5 135.4,177.0 136.9,178.5 138.5,180.7 140.0,183.5 141.5,186.6 143.0,189.8 144.5,192.9 146.0,195.8 147.5,198.3 149.0,200.4 150.5,202.0 152.1,203.2 153.6,204.1 155.1,204.8 156.6,205.1 158.1,205.3 159.6,205.3 161.1,205.1 162.6,204.8 164.1,204.2 165.6,203.5 167.2,202.5 168.7,201.2 170.2,199.5 171.7,197.5 173.2,195.1 174.7,192.2 176.2,189.1 177.7,185.6 179.2,181.9 180.8,178.2 182.3,174.6 183.8,171.2 185.3,168.2 186.8,165.8 188.3,164.1 189.8,163.3 191.3,163.3 192.8,164.3 194.4,166.0 195.9,168.4 197.4,171.5 198.9,174.9 200.4,178.6 201.9,182.3 203.4,186.0 204.9,189.4 206.4,192.5 207.9,195.3 209.5,197.7 211.0,199.7 212.5,201.3 214.0,202.6 215.5,203.6 217.0,204.3 218.5,204.9 220.0,205.3 221.5,205.6 223.1,205.7 224.6,205.9 226.1,206.0 227.6,206.0 229.1,206.1 230.6,206.1 232.1,206.1 233.6,206.1 235.1,206.1 236.7,206.1 238.2,206.1 239.7,206.1 241.2,206.1 242.7,206.1 244.2,206.1 245.7,206.1 247.2,206.1 248.7,206.1 250.3,206.1 251.8,206.1 253.3,206.1 254.8,206.1 256.3,206.1 257.8,206.1 259.3,206.1 260.8,206.1 262.3,206.1 263.8,206.1 265.4,206.1 266.9,206.1 268.4,206.1 269.9,206.1 271.4,206.1 272.9,206.1 274.4,206.1 275.9,206.1 277.4,206.1 279.0,206.1 280.5,206.1 282.0,206.1 283.5,206.1 285.0,206.1" fill="none" stroke="#2563eb" stroke-width="2" stroke-linecap="round" stroke-linejoin="round"/>
<rect x="81.3" y="132" width="27.3" height="78" fill="#f97316" opacity="0.18"/>
<rect x="350" y="105" width="260" height="135" rx="8" fill="white" stroke="#e5e7eb"/>
<text x="364" y="129" font-family="Arial, Helvetica, sans-serif" font-size="14" font-weight="700" fill="#111827" text-anchor="start">Attenuation mask a_k</text>
<line x1="362" y1="214" x2="598" y2="214" stroke="#e5e7eb" stroke-width="1.0"/>
<rect x="378" y="150" width="40" height="70" fill="#f97316" opacity="0.22"/><line x1="372" y1="205" x2="590" y2="205" stroke="#2563eb" stroke-width="3"/><line x1="378" y1="205" x2="418" y2="225" stroke="#f97316" stroke-width="5"/><text x="376" y="237" font-family="Arial, Helvetica, sans-serif" font-size="12" font-weight="400" fill="#64748b" text-anchor="start">motion band suppressed</text>
<rect x="650" y="105" width="260" height="135" rx="8" fill="white" stroke="#e5e7eb"/>
<text x="664" y="129" font-family="Arial, Helvetica, sans-serif" font-size="14" font-weight="700" fill="#111827" text-anchor="start">Reconstructed signal</text>
<line x1="662" y1="214" x2="898" y2="214" stroke="#e5e7eb" stroke-width="1.0"/>
<polyline points="668.0,181.6 669.9,179.2 671.8,177.4 673.6,176.3 675.5,175.9 677.4,175.9 679.3,176.4 681.2,177.1 683.1,178.0 684.9,178.8 686.8,179.4 688.7,179.8 690.6,179.8 692.5,179.5 694.4,178.8 696.2,177.9 698.1,176.8 700.0,175.7 701.9,174.8 703.8,174.3 705.6,174.2 707.5,174.6 709.4,175.8 711.3,177.6 713.2,180.1 715.1,183.3 716.9,186.9 718.8,190.8 720.7,194.9 722.6,198.9 724.5,202.6 726.4,205.8 728.2,208.3 730.1,210.1 732.0,211.1 733.9,211.2 735.8,210.5 737.6,209.0 739.5,207.0 741.4,204.5 743.3,201.8 745.2,199.0 747.1,196.3 748.9,193.9 750.8,191.9 752.7,190.4 754.6,189.3 756.5,188.6 758.4,188.3 760.2,188.3 762.1,188.3 764.0,188.4 765.9,188.3 767.8,187.8 769.6,187.0 771.5,185.8 773.4,184.0 775.3,181.9 777.2,179.5 779.1,176.8 780.9,174.1 782.8,171.6 784.7,169.4 786.6,167.7 788.5,166.7 790.4,166.4 792.2,167.0 794.1,168.5 796.0,170.7 797.9,173.6 799.8,177.2 801.6,181.1 803.5,185.1 805.4,189.2 807.3,193.0 809.2,196.4 811.1,199.3 812.9,201.4 814.8,202.9 816.7,203.7 818.6,203.8 820.5,203.4 822.4,202.6 824.2,201.5 826.1,200.4 828.0,199.3 829.9,198.3 831.8,197.7 833.6,197.5 835.5,197.5 837.4,198.0 839.3,198.6 841.2,199.4 843.1,200.1 844.9,200.7 846.8,200.9 848.7,200.7 850.6,199.9 852.5,198.5 854.4,196.4 856.2,193.7 858.1,190.4 860.0,186.8 861.9,182.9 863.8,179.0 865.6,175.3 867.5,171.9 869.4,169.1 871.3,167.1 873.2,165.8 875.1,165.4 876.9,165.9 878.8,167.2 880.7,169.2 882.6,171.7 884.5,174.6 886.4,177.7 888.2,180.7 890.1,183.6 892.0,186.2" fill="none" stroke="#2563eb" stroke-width="2.2" stroke-linecap="round" stroke-linejoin="round"/>
<text x="668" y="232" font-family="Arial, Helvetica, sans-serif" font-size="12" font-weight="400" fill="#64748b" text-anchor="start">cleaner morphology</text>
<rect x="50" y="285" width="860" height="110" rx="8" fill="white" stroke="#e5e7eb"/>
<text x="64" y="309" font-family="Arial, Helvetica, sans-serif" font-size="14" font-weight="700" fill="#111827" text-anchor="start">Transform</text>
<line x1="62" y1="369" x2="898" y2="369" stroke="#e5e7eb" stroke-width="1.0"/>
<text x="80" y="335" font-family="Arial, Helvetica, sans-serif" font-size="17" font-weight="700" fill="#2563eb" text-anchor="start">X[k]=F{x[n]},  X~[k]=a_k X[k],  x~[n]=F^{-1}{X~[k]}</text>
<rect x="44" y="472" width="420" height="34" rx="8" fill="#eff6ff" stroke="#bfdbfe"/>
<text x="58" y="495" font-family="Arial, Helvetica, sans-serif" font-size="13" font-weight="700" fill="#2563eb" text-anchor="start">frequency-domain attenuation</text>
<text x="488" y="492" font-family="Arial, Helvetica, sans-serif" font-size="12" font-weight="400" fill="#64748b" text-anchor="start">Figure: this is used as artifact suppression, not event detection.</text>
</svg>