<svg xmlns="http://www.w3.org/2000/svg" width="960" height="540" viewBox="0 0 960 540">
<rect width="100%" height="100%" fill="#ffffff"/>
<text x="28" y="38" font-family="Arial, Helvetica, sans-serif" font-size="24" font-weight="700" fill="#111827" text-anchor="start">LMS adaptive artifact cancellation</text>
<text x="28" y="62" font-family="Arial, Helvetica, sans-serif" font-size="13" font-weight="400" fill="#64748b" text-anchor="start">Reference artifact is adaptively estimated and subtracted from the primary signal.</text>
<rect x="28" y="78" width="904" height="380" rx="12" fill="#f8fafc" stroke="#e5e7eb"/>
<rect x="50" y="105" width="260" height="135" rx="8" fill="white" stroke="#e5e7eb"/>
<text x="64" y="129" font-family="Arial, Helvetica, sans-serif" font-size="14" font-weight="700" fill="#111827" text-anchor="start">Primary x[n]</text>
<line x1="62" y1="214" x2="298" y2="214" stroke="#e5e7eb" stroke-width="1.0"/>
<polyline points="68.0,193.5 69.9,184.8 71.8,184.6 73.6,190.8 75.5,193.4 77.4,188.2 79.3,181.6 81.2,182.4 83.1,190.1 84.9,195.4 86.8,192.0 88.7,184.8 90.6,183.4 92.5,189.3 94.4,194.2 96.2,190.6 98.1,181.9 100.0,177.8 101.9,182.3 103.8,188.1 105.6,186.9 107.5,180.0 109.4,176.7 111.3,182.7 113.2,192.2 115.1,195.9 116.9,192.5 118.8,190.9 120.7,197.7 122.6,209.0 124.5,214.7 126.4,211.8 128.2,207.8 130.1,210.9 132.0,219.0 133.9,222.6 135.8,216.9 137.6,208.2 139.5,205.8 141.4,210.1 143.3,212.2 145.2,205.7 147.1,195.4 148.9,191.2 150.8,195.2 152.7,199.4 154.6,196.1 156.5,187.8 158.4,184.2 160.2,189.2 162.1,195.8 164.0,195.2 165.9,187.7 167.8,182.6 169.6,185.6 171.5,191.4 173.4,190.6 175.3,181.7 177.2,173.4 179.1,173.2 180.9,177.8 182.8,177.6 184.7,169.6 186.6,161.2 188.5,161.0 190.4,167.8 192.2,172.2 194.1,169.0 196.0,163.9 197.9,166.2 199.8,176.3 201.6,185.2 203.5,185.9 205.4,182.4 207.3,183.9 209.2,193.1 211.1,202.0 212.9,202.4 214.8,196.2 216.7,193.3 218.6,198.2 220.5,204.6 222.4,203.4 224.2,195.1 226.1,189.0 228.0,191.3 229.9,197.6 231.8,198.2 233.6,191.4 235.5,185.4 237.4,187.9 239.3,195.8 241.2,199.3 243.1,194.5 244.9,188.1 246.8,188.9 248.7,195.6 250.6,199.0 252.5,193.1 254.4,183.6 256.2,179.8 258.1,183.0 260.0,184.7 261.9,177.8 263.8,166.2 265.6,159.9 267.5,162.1 269.4,165.6 271.3,162.0 273.2,153.3 275.1,148.8 276.9,153.8 278.8,161.9 280.7,164.0 282.6,159.4 284.5,157.0 286.4,163.2 288.2,173.5 290.1,178.1 292.0,174.3" fill="none" stroke="#6b7280" stroke-width="2.2" stroke-linecap="round" stroke-linejoin="round"/>
<text x="68" y="232" font-family="Arial, Helvetica, sans-serif" font-size="12" font-weight="400" fill="#64748b" text-anchor="start">cardiac + artifact</text>
<rect x="350" y="105" width="260" height="135" rx="8" fill="white" stroke="#e5e7eb"/>
<text x="364" y="129" font-family="Arial, Helvetica, sans-serif" font-size="14" font-weight="700" fill="#111827" text-anchor="start">Reference u[n]</text>
<line x1="362" y1="214" x2="598" y2="214" stroke="#e5e7eb" stroke-width="1.0"/>
<polyline points="368.0,199.1 369.8,196.8 371.7,195.0 373.5,193.8 375.4,193.2 377.2,193.0 379.1,193.1 380.9,193.5 382.8,194.0 384.6,194.4 386.5,194.7 388.3,194.7 390.2,194.5 392.0,193.9 393.9,193.1 395.7,192.1 397.6,190.9 399.4,189.8 401.3,188.8 403.1,188.1 405.0,187.7 406.8,187.9 408.7,188.6 410.5,189.9 412.4,191.8 414.2,194.1 416.1,196.9 417.9,200.0 419.8,203.1 421.6,206.2 423.5,209.1 425.3,211.6 427.2,213.5 429.0,214.7 430.9,215.3 432.7,215.1 434.6,214.2 436.4,212.8 438.3,210.8 440.1,208.5 441.9,205.9 443.8,203.3 445.6,200.8 447.5,198.6 449.3,196.6 451.2,195.1 453.0,193.9 454.9,193.1 456.7,192.6 458.6,192.3 460.4,192.1 462.3,191.9 464.1,191.5 466.0,190.9 467.8,190.0 469.7,188.7 471.5,187.0 473.4,184.9 475.2,182.6 477.1,180.1 478.9,177.6 480.8,175.2 482.6,173.1 484.5,171.4 486.3,170.3 488.2,169.9 490.0,170.1 491.9,171.1 493.7,172.7 495.6,174.9 497.4,177.6 499.3,180.7 501.1,183.9 503.0,187.0 504.8,190.0 506.7,192.6 508.5,194.7 510.4,196.3 512.2,197.3 514.1,197.7 515.9,197.6 517.7,197.0 519.6,196.0 521.4,194.9 523.3,193.6 525.1,192.5 527.0,191.4 528.8,190.7 530.7,190.2 532.5,190.0 534.4,190.1 536.2,190.4 538.1,190.8 539.9,191.2 541.8,191.4 543.6,191.4 545.5,190.9 547.3,190.0 549.2,188.5 551.0,186.5 552.9,184.0 554.7,181.0 556.6,177.7 558.4,174.1 560.3,170.6 562.1,167.2 564.0,164.2 565.8,161.6 567.7,159.6 569.5,158.3 571.4,157.7 573.2,157.8 575.1,158.7 576.9,160.1 578.8,161.9 580.6,164.1 582.5,166.5 584.3,168.8 586.2,171.0 588.0,172.9" fill="none" stroke="#f97316" stroke-width="2.2" stroke-linecap="round" stroke-linejoin="round"/><text x="370" y="224" font-family="Arial, Helvetica, sans-serif" font-size="12" font-weight="400" fill="#64748b" text-anchor="start">low-frequency artifact reference</text>
<rect x="650" y="105" width="260" height="135" rx="8" fill="white" stroke="#e5e7eb"/>
<text x="664" y="129" font-family="Arial, Helvetica, sans-serif" font-size="14" font-weight="700" fill="#111827" text-anchor="start">Error output e[n]</text>
<line x1="662" y1="214" x2="898" y2="214" stroke="#e5e7eb" stroke-width="1.0"/>
<polyline points="668.0,181.6 669.9,179.2 671.8,177.4 673.6,176.3 675.5,175.9 677.4,175.9 679.3,176.4 681.2,177.1 683.1,178.0 684.9,178.8 686.8,179.4 688.7,179.8 690.6,179.8 692.5,179.5 694.4,178.8 696.2,177.9 698.1,176.8 700.0,175.7 701.9,174.8 703.8,174.3 705.6,174.2 707.5,174.6 709.4,175.8 711.3,177.6 713.2,180.1 715.1,183.3 716.9,186.9 718.8,190.8 720.7,194.9 722.6,198.9 724.5,202.6 726.4,205.8 728.2,208.3 730.1,210.1 732.0,211.1 733.9,211.2 735.8,210.5 737.6,209.0 739.5,207.0 741.4,204.5 743.3,201.8 745.2,199.0 747.1,196.3 748.9,193.9 750.8,191.9 752.7,190.4 754.6,189.3 756.5,188.6 758.4,188.3 760.2,188.3 762.1,188.3 764.0,188.4 765.9,188.3 767.8,187.8 769.6,187.0 771.5,185.8 773.4,184.0 775.3,181.9 777.2,179.5 779.1,176.8 780.9,174.1 782.8,171.6 784.7,169.4 786.6,167.7 788.5,166.7 790.4,166.4 792.2,167.0 794.1,168.5 796.0,170.7 797.9,173.6 799.8,177.2 801.6,181.1 803.5,185.1 805.4,189.2 807.3,193.0 809.2,196.4 811.1,199.3 812.9,201.4 814.8,202.9 816.7,203.7 818.6,203.8 820.5,203.4 822.4,202.6 824.2,201.5 826.1,200.4 828.0,199.3 829.9,198.3 831.8,197.7 833.6,197.5 835.5,197.5 837.4,198.0 839.3,198.6 841.2,199.4 843.1,200.1 844.9,200.7 846.8,200.9 848.7,200.7 850.6,199.9 852.5,198.5 854.4,196.4 856.2,193.7 858.1,190.4 860.0,186.8 861.9,182.9 863.8,179.0 865.6,175.3 867.5,171.9 869.4,169.1 871.3,167.1 873.2,165.8 875.1,165.4 876.9,165.9 878.8,167.2 880.7,169.2 882.6,171.7 884.5,174.6 886.4,177.7 888.2,180.7 890.1,183.6 892.0,186.2" fill="none" stroke="#2563eb" stroke-width="2.2" stroke-linecap="round" stroke-linejoin="round"/>
<text x="668" y="232" font-family="Arial, Helvetica, sans-serif" font-size="12" font-weight="400" fill="#64748b" text-anchor="start">artifact reduced</text>
<rect x="50" y="285" width="860" height="110" rx="8" fill="white" stroke="#e5e7eb"/>
<text x="64" y="309" font-family="Arial, Helvetica, sans-serif" font-size="14" font-weight="700" fill="#111827" text-anchor="start">Adaptive update</text>
<line x1="62" y1="369" x2="898" y2="369" stroke="#e5e7eb" stroke-width="1.0"/>
<text x="80" y="335" font-family="Arial, Helvetica, sans-serif" font-size="17" font-weight="700" fill="#2563eb" text-anchor="start">d_hat[n] = w^T[n]u[n],  e[n] = x[n] - d_hat[n],  w[n+1] = w[n] + μ e[n]u[n]</text>
<rect x="44" y="472" width="420" height="34" rx="8" fill="#eff6ff" stroke="#bfdbfe"/>
<text x="58" y="495" font-family="Arial, Helvetica, sans-serif" font-size="13" font-weight="700" fill="#2563eb" text-anchor="start">LMS adaptive filter</text>
<text x="488" y="492" font-family="Arial, Helvetica, sans-serif" font-size="12" font-weight="400" fill="#64748b" text-anchor="start">Figure: LMS output is the cleaned error signal used downstream.</text>
</svg>