<svg xmlns="http://www.w3.org/2000/svg" width="960" height="540" viewBox="0 0 960 540">
<rect width="100%" height="100%" fill="#ffffff"/>
<text x="28" y="38" font-family="Arial, Helvetica, sans-serif" font-size="24" font-weight="700" fill="#111827" text-anchor="start">Zheng-style MTI interference cancellation</text>
<text x="28" y="62" font-family="Arial, Helvetica, sans-serif" font-size="13" font-weight="400" fill="#64748b" text-anchor="start">First-order MTI removes respiration-like drift and two beta values create a band-like component.</text>
<rect x="28" y="78" width="904" height="380" rx="12" fill="#f8fafc" stroke="#e5e7eb"/>
<rect x="50" y="105" width="260" height="135" rx="8" fill="white" stroke="#e5e7eb"/>
<text x="64" y="129" font-family="Arial, Helvetica, sans-serif" font-size="14" font-weight="700" fill="#111827" text-anchor="start">Input s(t)</text>
<line x1="62" y1="214" x2="298" y2="214" stroke="#e5e7eb" stroke-width="1.0"/>
<polyline points="68.0,200.9 69.8,198.1 71.7,196.0 73.5,194.6 75.4,193.8 77.2,193.6 79.1,193.7 80.9,194.2 82.8,194.8 84.6,195.3 86.5,195.6 88.3,195.7 90.2,195.4 92.0,194.7 93.9,193.8 95.7,192.5 97.6,191.1 99.4,189.8 101.3,188.5 103.1,187.7 105.0,187.3 106.8,187.4 108.7,188.3 110.5,189.9 112.4,192.1 114.2,195.0 116.1,198.3 117.9,202.0 119.8,205.8 121.6,209.5 123.5,212.9 125.3,215.9 127.2,218.1 129.0,219.7 130.9,220.3 132.7,220.1 134.6,219.1 136.4,217.3 138.3,215.0 140.1,212.1 141.9,209.1 143.8,206.0 145.6,203.0 147.5,200.3 149.3,198.0 151.2,196.1 153.0,194.7 154.9,193.7 156.7,193.1 158.6,192.7 160.4,192.5 162.3,192.3 164.1,191.8 166.0,191.1 167.8,190.0 169.7,188.4 171.5,186.4 173.4,183.9 175.2,181.1 177.1,178.1 178.9,175.1 180.8,172.3 182.6,169.7 184.5,167.7 186.3,166.4 188.2,165.8 190.0,166.1 191.9,167.3 193.7,169.2 195.6,171.9 197.4,175.2 199.3,178.8 201.1,182.6 203.0,186.4 204.8,190.0 206.7,193.1 208.5,195.7 210.4,197.6 212.2,198.8 214.1,199.3 215.9,199.1 217.7,198.4 219.6,197.2 221.4,195.9 223.3,194.4 225.1,193.0 227.0,191.7 228.8,190.8 230.7,190.2 232.5,190.0 234.4,190.1 236.2,190.5 238.1,191.0 239.9,191.4 241.8,191.7 243.6,191.6 245.5,191.1 247.3,190.0 249.2,188.2 251.0,185.8 252.9,182.8 254.7,179.2 256.6,175.2 258.4,171.0 260.3,166.7 262.1,162.7 264.0,159.0 265.8,155.9 267.7,153.5 269.5,151.9 271.4,151.2 273.2,151.4 275.1,152.4 276.9,154.1 278.8,156.3 280.6,159.0 282.5,161.8 284.3,164.6 286.2,167.2 288.0,169.4" fill="none" stroke="#6b7280" stroke-width="2.3" stroke-linecap="round" stroke-linejoin="round"/>
<rect x="350" y="105" width="260" height="135" rx="8" fill="white" stroke="#e5e7eb"/>
<text x="364" y="129" font-family="Arial, Helvetica, sans-serif" font-size="14" font-weight="700" fill="#111827" text-anchor="start">x_beta1 and x_beta2</text>
<line x1="362" y1="214" x2="598" y2="214" stroke="#e5e7eb" stroke-width="1.0"/>
<polyline points="368.0,171.7 369.8,171.2 371.7,171.2 373.5,171.7 375.4,172.5 377.2,173.5 379.1,174.7 380.9,175.8 382.8,176.7 384.6,177.5 386.5,178.0 388.3,178.2 390.2,178.2 392.0,178.0 393.9,177.6 395.7,177.3 397.6,177.0 399.4,176.9 401.3,177.2 403.1,177.8 405.0,178.8 406.8,180.3 408.7,182.3 410.5,184.6 412.4,187.1 414.2,189.8 416.1,192.6 417.9,195.2 419.8,197.5 421.6,199.3 423.5,200.7 425.3,201.4 427.2,201.5 429.0,200.9 430.9,199.8 432.7,198.1 434.6,196.0 436.4,193.6 438.3,191.1 440.1,188.6 441.9,186.3 443.8,184.2 445.6,182.5 447.5,181.1 449.3,180.2 451.2,179.7 453.0,179.4 454.9,179.5 456.7,179.6 458.6,179.8 460.4,179.9 462.3,179.8 464.1,179.5 466.0,178.9 467.8,178.0 469.7,176.9 471.5,175.6 473.4,174.1 475.2,172.7 477.1,171.4 478.9,170.3 480.8,169.7 482.6,169.5 484.5,169.9 486.3,170.8 488.2,172.4 490.0,174.5 491.9,177.0 493.7,179.9 495.6,183.0 497.4,186.1 499.3,189.1 501.1,191.8 503.0,194.2 504.8,196.0 506.7,197.3 508.5,198.0 510.4,198.2 512.2,197.8 514.1,197.0 515.9,195.9 517.7,194.5 519.6,193.2 521.4,191.8 523.3,190.6 525.1,189.7 527.0,189.0 528.8,188.6 530.7,188.5 532.5,188.6 534.4,188.8 536.2,189.0 538.1,189.1 539.9,189.0 541.8,188.7 543.6,187.9 545.5,186.8 547.3,185.2 549.2,183.2 551.0,181.0 552.9,178.5 554.7,175.9 556.6,173.4 558.4,171.1 560.3,169.1 562.1,167.6 564.0,166.7 565.8,166.4 567.7,166.8 569.5,167.8 571.4,169.3 573.2,171.4 575.1,173.8 576.9,176.4 578.8,179.1 580.6,181.8 582.5,184.2 584.3,186.3 586.2,188.0 588.0,189.2" fill="none" stroke="#16a34a" stroke-width="2" stroke-linecap="round" stroke-linejoin="round"/><polyline points="368.0,192.9 369.8,193.8 371.7,194.9 373.5,196.2 375.4,197.6 377.2,198.9 379.1,200.1 380.9,201.1 382.8,201.9 384.6,202.4 386.5,202.7 388.3,202.8 390.2,202.7 392.0,202.6 393.9,202.6 395.7,202.7 397.6,202.9 399.4,203.5 401.3,204.3 403.1,205.5 405.0,207.0 406.8,208.7 408.7,210.5 410.5,212.4 412.4,214.3 414.2,216.0 416.1,217.5 417.9,218.5 419.8,219.1 421.6,219.2 423.5,218.7 425.3,217.7 427.2,216.3 429.0,214.4 430.9,212.3 432.7,210.0 434.6,207.7 436.4,205.4 438.3,203.3 440.1,201.5 441.9,200.1 443.8,199.0 445.6,198.3 447.5,198.0 449.3,198.0 451.2,198.2 453.0,198.6 454.9,199.0 456.7,199.4 458.6,199.7 460.4,199.8 462.3,199.7 464.1,199.3 466.0,198.8 467.8,198.1 469.7,197.4 471.5,196.6 473.4,196.0 475.2,195.6 477.1,195.5 478.9,195.7 480.8,196.4 482.6,197.5 484.5,199.0 486.3,200.9 488.2,203.1 490.0,205.5 491.9,208.0 493.7,210.5 495.6,212.8 497.4,214.8 499.3,216.4 501.1,217.5 503.0,218.2 504.8,218.3 506.7,218.0 508.5,217.2 510.4,216.0 512.2,214.7 514.1,213.1 515.9,211.5 517.7,210.0 519.6,208.7 521.4,207.6 523.3,206.7 525.1,206.1 527.0,205.8 528.8,205.6 530.7,205.6 532.5,205.7 534.4,205.7 536.2,205.6 538.1,205.3 539.9,204.7 541.8,203.9 543.6,202.8 545.5,201.4 547.3,199.8 549.2,198.1 551.0,196.3 552.9,194.7 554.7,193.3 556.6,192.1 558.4,191.4 560.3,191.2 562.1,191.5 564.0,192.3 565.8,193.6 567.7,195.3 569.5,197.4 571.4,199.7 573.2,202.1 575.1,204.5 576.9,206.8 578.8,208.9 580.6,210.6 582.5,211.9 584.3,212.8 586.2,213.3 588.0,213.5" fill="none" stroke="#2563eb" stroke-width="2" stroke-linecap="round" stroke-linejoin="round"/>
<rect x="650" y="105" width="260" height="135" rx="8" fill="white" stroke="#e5e7eb"/>
<text x="664" y="129" font-family="Arial, Helvetica, sans-serif" font-size="14" font-weight="700" fill="#111827" text-anchor="start">Output y(t)</text>
<line x1="662" y1="214" x2="898" y2="214" stroke="#e5e7eb" stroke-width="1.0"/>
<polyline points="668.0,182.9 669.8,180.4 671.7,178.6 673.5,177.5 675.4,177.0 677.2,177.1 679.1,177.6 680.9,178.3 682.8,179.2 684.6,180.0 686.5,180.6 688.3,181.0 690.2,181.0 692.0,180.7 693.9,180.0 695.7,179.1 697.6,178.0 699.4,176.9 701.3,176.0 703.1,175.4 705.0,175.3 706.8,175.8 708.7,176.9 710.5,178.8 712.4,181.4 714.2,184.5 716.1,188.2 717.9,192.1 719.8,196.2 721.6,200.3 723.5,204.0 725.3,207.2 727.2,209.8 729.0,211.6 730.9,212.6 732.7,212.7 734.6,212.0 736.4,210.5 738.3,208.4 740.1,205.9 741.9,203.2 743.8,200.4 745.6,197.7 747.5,195.3 749.3,193.3 751.2,191.7 753.0,190.6 754.9,189.9 756.7,189.6 758.6,189.6 760.4,189.6 762.3,189.7 764.1,189.6 766.0,189.1 767.8,188.3 769.7,187.0 771.5,185.3 773.4,183.1 775.2,180.7 777.1,178.0 778.9,175.3 780.8,172.7 782.6,170.5 784.5,168.8 786.3,167.8 788.2,167.5 790.0,168.1 791.9,169.5 793.7,171.8 795.6,174.8 797.4,178.3 799.3,182.3 801.1,186.4 803.0,190.5 804.8,194.4 806.7,197.8 808.5,200.7 810.4,202.9 812.2,204.4 814.1,205.2 815.9,205.3 817.7,204.9 819.6,204.1 821.4,203.0 823.3,201.8 825.1,200.7 827.0,199.7 828.8,199.1 830.7,198.8 832.5,198.9 834.4,199.3 836.2,200.0 838.1,200.8 839.9,201.5 841.8,202.1 843.6,202.4 845.5,202.1 847.3,201.3 849.2,199.9 851.0,197.8 852.9,195.0 854.7,191.7 856.6,188.0 858.4,184.1 860.3,180.2 862.1,176.4 864.0,173.1 865.8,170.2 867.7,168.2 869.5,166.9 871.4,166.5 873.2,167.0 875.1,168.3 876.9,170.3 878.8,172.8 880.6,175.8 882.5,178.9 884.3,182.0 886.2,184.9 888.0,187.4" fill="none" stroke="#dc2626" stroke-width="2.3" stroke-linecap="round" stroke-linejoin="round"/>
<rect x="50" y="285" width="860" height="110" rx="8" fill="white" stroke="#e5e7eb"/>
<text x="64" y="309" font-family="Arial, Helvetica, sans-serif" font-size="14" font-weight="700" fill="#111827" text-anchor="start">Formula</text>
<line x1="62" y1="369" x2="898" y2="369" stroke="#e5e7eb" stroke-width="1.0"/>
<text x="80" y="335" font-family="Arial, Helvetica, sans-serif" font-size="16" font-weight="700" fill="#2563eb" text-anchor="start">s_R(t)=βs_R(t-1)+(1-β)s(t),  x(t)=s(t)-s_R(t),  y=x_β2-x_β1</text>
<rect x="44" y="472" width="420" height="34" rx="8" fill="#eff6ff" stroke="#bfdbfe"/>
<text x="58" y="495" font-family="Arial, Helvetica, sans-serif" font-size="13" font-weight="700" fill="#2563eb" text-anchor="start">MTI high-pass concept</text>
<text x="488" y="492" font-family="Arial, Helvetica, sans-serif" font-size="12" font-weight="400" fill="#64748b" text-anchor="start">Figure: adapted conceptually for SCG/radar morphology documentation.</text>
</svg>