<svg xmlns="http://www.w3.org/2000/svg" width="960" height="540" viewBox="0 0 960 540">
<rect width="100%" height="100%" fill="#ffffff"/>
<text x="28" y="38" font-family="Arial, Helvetica, sans-serif" font-size="24" font-weight="700" fill="#111827" text-anchor="start">Q/T pseudo-landmark detection</text>
<text x="28" y="62" font-family="Arial, Helvetica, sans-serif" font-size="13" font-weight="400" fill="#64748b" text-anchor="start">RR-adaptive windows estimate Q and T context with confidence scores.</text>
<rect x="28" y="78" width="904" height="380" rx="12" fill="#f8fafc" stroke="#e5e7eb"/>
<rect x="50" y="105" width="860" height="160" rx="8" fill="white" stroke="#e5e7eb"/>
<text x="64" y="129" font-family="Arial, Helvetica, sans-serif" font-size="14" font-weight="700" fill="#111827" text-anchor="start">Single ECG beat</text>
<line x1="62" y1="239" x2="898" y2="239" stroke="#e5e7eb" stroke-width="1.0"/>
<polyline points="90.0,205.0 95.1,205.0 100.2,205.0 105.3,205.0 110.4,205.0 115.5,205.0 120.6,205.0 125.7,205.0 130.8,205.0 135.9,205.0 141.0,205.0 146.1,205.0 151.2,205.0 156.3,205.0 161.4,205.0 166.5,205.1 171.6,205.2 176.7,205.5 181.8,205.9 186.9,206.7 192.0,207.8 197.1,209.4 202.2,211.5 207.3,213.9 212.4,216.3 217.5,218.3 222.6,219.6 227.7,220.0 232.8,219.3 237.9,217.6 243.0,215.0 248.1,211.0 253.2,203.1 258.3,187.8 263.4,164.8 268.5,143.3 273.6,137.4 278.7,151.2 283.8,173.9 288.9,192.3 294.0,202.1 299.1,206.4 304.2,208.9 309.3,211.1 314.4,213.2 319.5,215.0 324.6,215.8 329.7,215.4 334.8,214.0 339.9,211.9 345.0,209.8 350.1,207.9 355.2,206.6 360.3,205.8 365.4,205.3 370.5,205.1 375.6,205.0 380.7,205.0 385.8,205.0 390.9,205.0 396.0,205.0 401.1,204.9 406.2,204.9 411.3,204.9 416.4,204.8 421.5,204.7 426.6,204.6 431.7,204.4 436.8,204.2 441.9,203.9 447.0,203.6 452.1,203.1 457.2,202.5 462.3,201.9 467.4,201.0 472.6,200.0 477.7,198.8 482.8,197.5 487.9,195.9 493.0,194.2 498.1,192.3 503.2,190.3 508.3,188.2 513.4,186.0 518.5,183.7 523.6,181.5 528.7,179.4 533.8,177.5 538.9,175.7 544.0,174.3 549.1,173.1 554.2,172.4 559.3,172.0 564.4,172.1 569.5,172.5 574.6,173.4 579.7,174.6 584.8,176.1 589.9,177.9 595.0,179.9 600.1,182.1 605.2,184.3 610.3,186.5 615.4,188.7 620.5,190.8 625.6,192.8 630.7,194.7 635.8,196.3 640.9,197.8 646.0,199.1 651.1,200.3 656.2,201.2 661.3,202.0 666.4,202.7 671.5,203.2 676.6,203.7 681.7,204.0 686.8,204.3 691.9,204.5 697.0,204.6 702.1,204.7 707.2,204.8 712.3,204.9 717.4,204.9 722.5,204.9 727.6,205.0 732.7,205.0 737.8,205.0 742.9,205.0 748.0,205.0 753.1,205.0 758.2,205.0 763.3,205.0 768.4,205.0 773.5,205.0 778.6,205.0 783.7,205.0 788.8,205.0 793.9,205.0 799.0,205.0 804.1,205.0 809.2,205.0 814.3,205.0 819.4,205.0 824.5,205.0 829.6,205.0 834.7,205.0 839.8,205.0 844.9,205.0 850.0,205.0" fill="none" stroke="#2563eb" stroke-width="2.5" stroke-linecap="round" stroke-linejoin="round"/><circle cx="226.8" cy="220.0" r="5" fill="#16a34a" stroke="white" stroke-width="2"/>
<text x="226.79999999999998" y="210" font-family="Arial, Helvetica, sans-serif" font-size="12" font-weight="700" fill="#16a34a" text-anchor="middle">Q</text><circle cx="272.4" cy="136.0" r="5" fill="#dc2626" stroke="white" stroke-width="2"/>
<text x="272.4" y="126" font-family="Arial, Helvetica, sans-serif" font-size="12" font-weight="700" fill="#dc2626" text-anchor="middle">R</text><circle cx="561.2" cy="172.0" r="5" fill="#f97316" stroke="white" stroke-width="2"/>
<text x="561.2" y="162" font-family="Arial, Helvetica, sans-serif" font-size="12" font-weight="700" fill="#f97316" text-anchor="middle">T</text><line x1="226.79999999999998" y1="245" x2="561.2" y2="245" stroke="#7c3aed" stroke-width="3"/><text x="394.0" y="238" font-family="Arial, Helvetica, sans-serif" font-size="12" font-weight="700" fill="#7c3aed" text-anchor="middle">QT interval</text>
<rect x="50" y="305" width="860" height="90" rx="8" fill="white" stroke="#e5e7eb"/>
<text x="64" y="329" font-family="Arial, Helvetica, sans-serif" font-size="14" font-weight="700" fill="#111827" text-anchor="start">Confidence</text>
<line x1="62" y1="369" x2="898" y2="369" stroke="#e5e7eb" stroke-width="1.0"/>
<text x="80" y="352" font-family="Arial, Helvetica, sans-serif" font-size="15" font-weight="700" fill="#2563eb" text-anchor="start">C_Q = 0.55 C_amp + 0.30 C_time + 0.15 C_edge;  C_T = 0.35 C_amp + 0.45 C_time + 0.20 C_prom</text>
<rect x="44" y="472" width="420" height="34" rx="8" fill="#eff6ff" stroke="#bfdbfe"/>
<text x="58" y="495" font-family="Arial, Helvetica, sans-serif" font-size="13" font-weight="700" fill="#2563eb" text-anchor="start">RR_i = R_{i+1}-R_i</text>
<text x="488" y="492" font-family="Arial, Helvetica, sans-serif" font-size="12" font-weight="400" fill="#64748b" text-anchor="start">Figure: Q/T are pseudo-landmarks used for context, not AO/AC truth.</text>
</svg>