<svg xmlns="http://www.w3.org/2000/svg" width="960" height="540" viewBox="0 0 960 540">
<rect width="100%" height="100%" fill="#ffffff"/>
<text x="28" y="38" font-family="Arial, Helvetica, sans-serif" font-size="24" font-weight="700" fill="#111827" text-anchor="start">Radar phase extraction and displacement</text>
<text x="28" y="62" font-family="Arial, Helvetica, sans-serif" font-size="13" font-weight="400" fill="#64748b" text-anchor="start">Complex phase is unwrapped and converted to displacement-like micro-motion.</text>
<rect x="28" y="78" width="904" height="380" rx="12" fill="#f8fafc" stroke="#e5e7eb"/>
<rect x="50" y="105" width="260" height="135" rx="8" fill="white" stroke="#e5e7eb"/>
<text x="64" y="129" font-family="Arial, Helvetica, sans-serif" font-size="14" font-weight="700" fill="#111827" text-anchor="start">Complex IQ / phase</text>
<line x1="62" y1="214" x2="298" y2="214" stroke="#e5e7eb" stroke-width="1.0"/>
<polyline points="70.0,173.9 71.8,175.0 73.5,176.5 75.3,178.3 77.1,180.1 78.8,181.9 80.6,183.5 82.4,184.8 84.1,185.9 85.9,186.5 87.6,186.9 89.4,187.0 91.2,187.0 92.9,186.9 94.7,186.8 96.5,186.9 98.2,187.3 100.0,188.0 101.8,189.1 103.5,190.7 105.3,192.6 107.1,194.9 108.8,197.4 110.6,199.9 112.4,202.4 114.1,204.7 115.9,206.6 117.6,208.0 119.4,208.8 121.2,208.9 122.9,208.3 124.7,207.0 126.5,205.0 128.2,202.6 130.0,199.8 131.8,196.7 133.5,193.6 135.3,190.5 137.1,187.8 138.8,185.4 140.6,183.4 142.4,182.0 144.1,181.1 145.9,180.7 147.6,180.7 149.4,181.0 151.2,181.5 152.9,182.1 154.7,182.6 156.5,182.9 158.2,183.1 160.0,182.9 161.8,182.5 163.5,181.8 165.3,180.8 167.1,179.8 168.8,178.9 170.6,178.0 172.4,177.5 174.1,177.3 175.9,177.6 177.6,178.5 179.4,180.0 181.2,182.0 182.9,184.6 184.7,187.5 186.5,190.7 188.2,194.1 190.0,197.3 191.8,200.4 193.5,203.0 195.3,205.2 197.1,206.7 198.8,207.6 200.6,207.8 202.4,207.3 204.1,206.3 205.9,204.7 207.6,202.9 209.4,200.8 211.2,198.7 212.9,196.7 214.7,194.9 216.5,193.4 218.2,192.3 220.0,191.5 221.8,191.0 223.5,190.9 225.3,190.9 227.1,190.9 228.8,190.9 230.6,190.8 232.4,190.4 234.1,189.6 235.9,188.5 237.6,187.0 239.4,185.2 241.2,183.0 242.9,180.8 244.7,178.5 246.5,176.3 248.2,174.4 250.0,172.9 251.8,171.9 253.5,171.6 255.3,172.0 257.1,173.0 258.8,174.8 260.6,177.1 262.4,179.8 264.1,182.9 265.9,186.2 267.6,189.4 269.4,192.4 271.2,195.2 272.9,197.5 274.7,199.2 276.5,200.4 278.2,201.1 280.0,201.3" fill="none" stroke="#6b7280" stroke-width="2" stroke-linecap="round" stroke-linejoin="round"/>
<rect x="350" y="105" width="260" height="135" rx="8" fill="white" stroke="#e5e7eb"/>
<text x="364" y="129" font-family="Arial, Helvetica, sans-serif" font-size="14" font-weight="700" fill="#111827" text-anchor="start">unwrap(angle z(t))</text>
<line x1="362" y1="214" x2="598" y2="214" stroke="#e5e7eb" stroke-width="1.0"/>
<polyline points="370.0,210.0 372.0,211.6 374.0,213.1 376.0,214.6 378.0,216.1 380.0,217.5 382.0,218.9 384.0,220.1 386.0,221.3 388.0,222.3 390.0,223.3 392.0,224.1 394.0,224.7 396.0,225.3 398.0,225.6 400.0,225.8 402.0,225.9 404.0,225.7 406.0,225.5 408.0,225.0 410.0,224.4 412.0,223.6 414.0,222.7 416.0,221.6 418.0,220.4 420.0,219.0 422.0,217.5 424.0,215.9 426.0,214.2 428.0,212.4 430.0,210.6 432.0,208.6 434.0,206.6 436.0,204.6 438.0,202.5 440.0,200.4 442.0,198.4 444.0,196.3 446.0,194.3 448.0,192.4 450.0,190.5 452.0,188.7 454.0,187.0 456.0,185.4 458.0,183.9 460.0,182.5 462.0,181.2 464.0,180.2 466.0,179.2 468.0,178.4 470.0,177.8 472.0,177.3 474.0,177.0 476.0,176.9 478.0,176.9 480.0,177.1 482.0,177.4 484.0,177.9 486.0,178.6 488.0,179.3 490.0,180.3 492.0,181.3 494.0,182.4 496.0,183.7 498.0,185.0 500.0,186.4 502.0,187.9 504.0,189.4 506.0,191.0 508.0,192.5 510.0,194.1 512.0,195.7 514.0,197.2 516.0,198.7 518.0,200.1 520.0,201.4 522.0,202.7 524.0,203.9 526.0,205.0 528.0,205.9 530.0,206.7 532.0,207.4 534.0,207.9 536.0,208.3 538.0,208.5 540.0,208.6 542.0,208.5 544.0,208.2 546.0,207.8 548.0,207.2 550.0,206.4 552.0,205.5 554.0,204.5 556.0,203.3 558.0,201.9 560.0,200.4 562.0,198.8 564.0,197.2 566.0,195.4 568.0,193.5 570.0,191.6 572.0,189.6 574.0,187.5 576.0,185.5 578.0,183.4" fill="none" stroke="#2563eb" stroke-width="2" stroke-linecap="round" stroke-linejoin="round"/>
<rect x="650" y="105" width="260" height="135" rx="8" fill="white" stroke="#e5e7eb"/>
<text x="664" y="129" font-family="Arial, Helvetica, sans-serif" font-size="14" font-weight="700" fill="#111827" text-anchor="start">Displacement Δr(t)</text>
<line x1="662" y1="214" x2="898" y2="214" stroke="#e5e7eb" stroke-width="1.0"/>
<polyline points="670.0,185.5 671.8,183.5 673.5,182.1 675.3,181.1 677.1,180.7 678.8,180.8 680.6,181.1 682.4,181.7 684.1,182.4 685.9,183.0 687.6,183.5 689.4,183.8 691.2,183.8 692.9,183.5 694.7,182.9 696.5,182.1 698.2,181.3 700.0,180.4 701.8,179.6 703.5,179.1 705.3,179.0 707.1,179.4 708.8,180.3 710.6,181.8 712.4,183.8 714.1,186.3 715.9,189.2 717.6,192.4 719.4,195.6 721.2,198.8 722.9,201.8 724.7,204.4 726.5,206.4 728.2,207.8 730.0,208.6 731.8,208.7 733.5,208.1 735.3,206.9 737.1,205.2 738.8,203.2 740.6,201.0 742.4,198.7 744.1,196.5 745.9,194.6 747.6,192.9 749.4,191.6 751.2,190.7 752.9,190.2 754.7,189.9 756.5,189.9 758.2,189.9 760.0,189.9 761.8,189.8 763.5,189.4 765.3,188.8 767.1,187.7 768.8,186.3 770.6,184.6 772.4,182.6 774.1,180.4 775.9,178.2 777.6,176.1 779.4,174.3 781.2,173.0 782.9,172.1 784.7,171.9 786.5,172.3 788.2,173.5 790.0,175.3 791.8,177.6 793.5,180.5 795.3,183.6 797.1,186.9 798.8,190.1 800.6,193.2 802.4,195.9 804.1,198.2 805.9,199.9 807.6,201.1 809.4,201.7 811.2,201.8 812.9,201.5 814.7,200.8 816.5,199.9 818.2,198.9 820.0,198.0 821.8,197.3 823.5,196.7 825.3,196.5 827.1,196.6 828.8,196.9 830.6,197.4 832.4,198.0 834.1,198.6 835.9,199.0 837.6,199.2 839.4,199.0 841.2,198.3 842.9,197.1 844.7,195.4 846.5,193.2 848.2,190.5 850.0,187.6 851.8,184.4 853.5,181.3 855.3,178.2 857.1,175.5 858.8,173.2 860.6,171.5 862.4,170.5 864.1,170.2 865.9,170.5 867.6,171.6 869.4,173.1 871.2,175.2 872.9,177.5 874.7,179.9 876.5,182.4 878.2,184.7 880.0,186.7" fill="none" stroke="#16a34a" stroke-width="2.2" stroke-linecap="round" stroke-linejoin="round"/>
<rect x="50" y="285" width="860" height="110" rx="8" fill="white" stroke="#e5e7eb"/>
<text x="64" y="309" font-family="Arial, Helvetica, sans-serif" font-size="14" font-weight="700" fill="#111827" text-anchor="start">Formula</text>
<line x1="62" y1="369" x2="898" y2="369" stroke="#e5e7eb" stroke-width="1.0"/>
<text x="80" y="335" font-family="Arial, Helvetica, sans-serif" font-size="18" font-weight="700" fill="#2563eb" text-anchor="start">φ(t)=unwrap(angle z(t));  Δr(t)=λ Δφ(t)/(4π)</text>
<rect x="44" y="472" width="420" height="34" rx="8" fill="#eff6ff" stroke="#bfdbfe"/>
<text x="58" y="495" font-family="Arial, Helvetica, sans-serif" font-size="13" font-weight="700" fill="#2563eb" text-anchor="start">phase-to-displacement</text>
<text x="488" y="492" font-family="Arial, Helvetica, sans-serif" font-size="12" font-weight="400" fill="#64748b" text-anchor="start">Figure: displacement is derived from phase, not a direct image of the valve.</text>
</svg>