<svg xmlns="http://www.w3.org/2000/svg" width="960" height="540" viewBox="0 0 960 540">
<rect width="100%" height="100%" fill="#ffffff"/>
<text x="28" y="38" font-family="Arial, Helvetica, sans-serif" font-size="24" font-weight="700" fill="#111827" text-anchor="start">Radar respiration cancellation</text>
<text x="28" y="62" font-family="Arial, Helvetica, sans-serif" font-size="13" font-weight="400" fill="#64748b" text-anchor="start">Low-frequency respiration trend is suppressed to expose cardiac-band morphology.</text>
<rect x="28" y="78" width="904" height="380" rx="12" fill="#f8fafc" stroke="#e5e7eb"/>
<rect x="50" y="105" width="390" height="135" rx="8" fill="white" stroke="#e5e7eb"/>
<text x="64" y="129" font-family="Arial, Helvetica, sans-serif" font-size="14" font-weight="700" fill="#111827" text-anchor="start">Raw displacement</text>
<line x1="62" y1="214" x2="428" y2="214" stroke="#e5e7eb" stroke-width="1.0"/>
<polyline points="70.0,203.9 72.8,199.7 75.5,197.9 78.3,198.2 81.1,198.1 83.9,196.6 86.6,195.2 89.4,195.6 92.2,197.8 95.0,199.3 97.7,198.7 100.5,197.1 103.3,196.4 106.1,197.2 108.8,197.5 111.6,195.6 114.4,192.5 117.1,190.4 119.9,190.4 122.7,191.0 125.5,190.4 128.2,188.8 131.0,188.7 133.8,191.2 136.6,195.0 139.3,198.0 142.1,199.8 144.9,202.1 147.6,206.6 150.4,212.0 153.2,215.8 156.0,217.4 158.7,218.2 161.5,220.0 164.3,222.3 167.1,222.8 169.8,220.7 172.6,217.2 175.4,214.8 178.2,213.5 180.9,211.6 183.7,207.6 186.5,202.9 189.2,199.7 192.0,198.8 194.8,198.2 197.6,196.3 200.3,193.6 203.1,192.2 205.9,193.0 208.7,194.3 211.4,193.9 214.2,191.7 217.0,189.9 219.7,189.7 222.5,189.7 225.3,187.9 228.1,183.9 230.8,179.7 233.6,177.3 236.4,176.0 239.2,173.6 241.9,169.8 244.7,166.2 247.5,165.1 250.3,166.1 253.0,167.3 255.8,167.4 258.6,167.6 261.3,170.2 264.1,174.9 266.9,179.7 269.7,182.8 272.4,184.8 275.2,187.8 278.0,192.3 280.8,196.2 283.5,197.7 286.3,197.2 289.1,196.8 291.8,197.7 294.6,198.5 297.4,197.3 300.2,194.3 302.9,191.6 305.7,191.0 308.5,191.4 311.3,190.8 314.0,188.7 316.8,187.1 319.6,187.7 322.4,189.7 325.1,190.8 327.9,190.0 330.7,188.6 333.4,188.7 336.2,189.8 339.0,189.6 341.8,186.8 344.5,182.7 347.3,179.4 350.1,177.3 352.9,174.5 355.6,169.6 358.4,163.6 361.2,158.9 363.9,156.5 366.7,154.8 369.5,152.1 372.3,148.8 375.0,147.2 377.8,148.4 380.6,150.9 383.4,152.7 386.1,153.3 388.9,154.7 391.7,158.2 394.5,162.6 397.2,165.6 400.0,166.4" fill="none" stroke="#6b7280" stroke-width="2" stroke-linecap="round" stroke-linejoin="round"/>
<rect x="520" y="105" width="390" height="135" rx="8" fill="white" stroke="#e5e7eb"/>
<text x="534" y="129" font-family="Arial, Helvetica, sans-serif" font-size="14" font-weight="700" fill="#111827" text-anchor="start">Cardiac-band output</text>
<line x1="532" y1="214" x2="898" y2="214" stroke="#e5e7eb" stroke-width="1.0"/>
<polyline points="540.0,182.9 542.8,180.4 545.5,178.6 548.3,177.5 551.1,177.0 553.9,177.1 556.6,177.6 559.4,178.3 562.2,179.2 565.0,180.0 567.7,180.6 570.5,181.0 573.3,181.0 576.1,180.7 578.8,180.0 581.6,179.1 584.4,178.0 587.1,176.9 589.9,176.0 592.7,175.4 595.5,175.3 598.2,175.8 601.0,176.9 603.8,178.8 606.6,181.4 609.3,184.5 612.1,188.2 614.9,192.1 617.6,196.2 620.4,200.3 623.2,204.0 626.0,207.2 628.7,209.8 631.5,211.6 634.3,212.6 637.1,212.7 639.8,212.0 642.6,210.5 645.4,208.4 648.2,205.9 650.9,203.2 653.7,200.4 656.5,197.7 659.2,195.3 662.0,193.3 664.8,191.7 667.6,190.6 670.3,189.9 673.1,189.6 675.9,189.6 678.7,189.6 681.4,189.7 684.2,189.6 687.0,189.1 689.7,188.3 692.5,187.0 695.3,185.3 698.1,183.1 700.8,180.7 703.6,178.0 706.4,175.3 709.2,172.7 711.9,170.5 714.7,168.8 717.5,167.8 720.3,167.5 723.0,168.1 725.8,169.5 728.6,171.8 731.3,174.8 734.1,178.3 736.9,182.3 739.7,186.4 742.4,190.5 745.2,194.4 748.0,197.8 750.8,200.7 753.5,202.9 756.3,204.4 759.1,205.2 761.8,205.3 764.6,204.9 767.4,204.1 770.2,203.0 772.9,201.8 775.7,200.7 778.5,199.7 781.3,199.1 784.0,198.8 786.8,198.9 789.6,199.3 792.4,200.0 795.1,200.8 797.9,201.5 800.7,202.1 803.4,202.4 806.2,202.1 809.0,201.3 811.8,199.9 814.5,197.8 817.3,195.0 820.1,191.7 822.9,188.0 825.6,184.1 828.4,180.2 831.2,176.4 833.9,173.1 836.7,170.2 839.5,168.2 842.3,166.9 845.0,166.5 847.8,167.0 850.6,168.3 853.4,170.3 856.1,172.8 858.9,175.8 861.7,178.9 864.5,182.0 867.2,184.9 870.0,187.4" fill="none" stroke="#2563eb" stroke-width="2.2" stroke-linecap="round" stroke-linejoin="round"/>
<rect x="50" y="285" width="860" height="110" rx="8" fill="white" stroke="#e5e7eb"/>
<text x="64" y="309" font-family="Arial, Helvetica, sans-serif" font-size="14" font-weight="700" fill="#111827" text-anchor="start">Band extraction</text>
<line x1="62" y1="369" x2="898" y2="369" stroke="#e5e7eb" stroke-width="1.0"/>
<text x="80" y="335" font-family="Arial, Helvetica, sans-serif" font-size="16" font-weight="700" fill="#2563eb" text-anchor="start">x_cardiac(t) = B_{f_heart,low,f_heart,high}{Δr(t)} after respiration/motion suppression</text>
<rect x="44" y="472" width="420" height="34" rx="8" fill="#eff6ff" stroke="#bfdbfe"/>
<text x="58" y="495" font-family="Arial, Helvetica, sans-serif" font-size="13" font-weight="700" fill="#2563eb" text-anchor="start">respiration LMS + band-pass</text>
<text x="488" y="492" font-family="Arial, Helvetica, sans-serif" font-size="12" font-weight="400" fill="#64748b" text-anchor="start">Figure: cardiac morphology becomes clearer after removing slow displacement trends.</text>
</svg>