<svg xmlns="http://www.w3.org/2000/svg" width="960" height="540" viewBox="0 0 960 540">
<rect width="100%" height="100%" fill="#ffffff"/>
<text x="28" y="38" font-family="Arial, Helvetica, sans-serif" font-size="24" font-weight="700" fill="#111827" text-anchor="start">Radar range FFT and ROI selection</text>
<text x="28" y="62" font-family="Arial, Helvetica, sans-serif" font-size="13" font-weight="400" fill="#64748b" text-anchor="start">FMCW frames are transformed into range profiles and a chest-motion ROI is selected.</text>
<rect x="28" y="78" width="904" height="380" rx="12" fill="#f8fafc" stroke="#e5e7eb"/>
<rect x="50" y="105" width="260" height="135" rx="8" fill="white" stroke="#e5e7eb"/>
<text x="64" y="129" font-family="Arial, Helvetica, sans-serif" font-size="14" font-weight="700" fill="#111827" text-anchor="start">Raw chirp samples</text>
<line x1="62" y1="214" x2="298" y2="214" stroke="#e5e7eb" stroke-width="1.0"/>
<polyline points="70.0,179.3 71.8,175.1 73.5,174.3 75.3,176.2 77.1,177.0 78.8,175.2 80.6,173.0 82.4,173.7 84.1,177.0 85.9,179.4 87.6,178.5 89.4,176.1 91.2,175.6 92.9,177.7 94.7,179.3 96.5,177.7 98.2,174.1 100.0,172.2 101.8,173.5 103.5,175.4 105.3,175.0 107.1,172.8 108.8,172.2 110.6,175.2 112.4,179.9 114.1,182.7 115.9,183.2 117.6,184.4 119.4,188.7 121.2,194.7 122.9,198.5 124.7,198.9 126.5,198.7 128.2,200.6 130.0,204.1 131.8,205.6 133.5,203.2 135.3,199.5 137.1,197.8 138.8,198.3 140.6,197.9 142.4,194.4 144.1,189.6 145.9,187.0 147.6,187.7 149.4,188.6 151.2,187.0 152.9,183.7 154.7,182.3 156.5,184.2 158.2,186.8 160.0,186.6 161.8,183.9 163.5,181.9 165.3,182.7 167.1,184.4 168.8,183.4 170.6,179.3 172.4,175.2 174.1,174.0 175.9,174.6 177.6,173.5 179.4,169.7 181.2,165.9 182.9,165.5 184.7,167.9 186.5,169.9 188.2,169.4 190.0,168.6 191.8,170.8 193.5,176.1 195.3,181.2 197.1,183.3 198.8,183.9 200.6,186.2 202.4,191.2 204.1,195.8 205.9,196.9 207.6,195.4 209.4,194.7 211.2,196.7 212.9,198.9 214.7,198.2 216.5,194.7 218.2,192.0 220.0,192.5 221.8,194.5 223.5,194.5 225.3,191.9 227.1,189.9 228.8,191.0 230.6,194.3 232.4,196.0 234.1,194.6 235.9,192.6 237.6,193.1 239.4,195.5 241.2,196.5 242.9,193.8 244.7,189.4 246.5,186.9 248.2,186.7 250.0,185.8 251.8,181.6 253.5,175.7 255.3,171.8 257.1,171.3 258.8,171.4 260.6,169.2 262.4,165.5 264.1,163.8 265.9,165.9 267.6,169.5 269.4,171.2 271.2,170.8 272.9,171.2 274.7,174.9 276.5,180.1 278.2,183.1 280.0,182.9" fill="none" stroke="#6b7280" stroke-width="2" stroke-linecap="round" stroke-linejoin="round"/>
<rect x="350" y="105" width="260" height="135" rx="8" fill="white" stroke="#e5e7eb"/>
<text x="364" y="129" font-family="Arial, Helvetica, sans-serif" font-size="14" font-weight="700" fill="#111827" text-anchor="start">Range profile</text>
<line x1="362" y1="214" x2="598" y2="214" stroke="#e5e7eb" stroke-width="1.0"/>
<polyline points="375.0,206.0 376.5,206.0 378.0,206.0 379.5,206.0 381.0,206.0 382.6,206.0 384.1,206.0 385.6,206.0 387.1,206.0 388.6,206.0 390.1,206.0 391.6,206.0 393.1,205.9 394.6,205.9 396.2,205.8 397.7,205.6 399.2,205.4 400.7,205.0 402.2,204.5 403.7,203.7 405.2,202.7 406.7,201.5 408.2,199.9 409.7,198.1 411.3,196.1 412.8,193.9 414.3,191.8 415.8,189.7 417.3,188.0 418.8,186.8 420.3,186.1 421.8,186.1 423.3,186.6 424.9,187.8 426.4,189.4 427.9,191.4 429.4,193.6 430.9,195.7 432.4,197.8 433.9,199.6 435.4,201.2 436.9,202.5 438.5,203.6 440.0,204.3 441.5,204.9 443.0,205.3 444.5,205.6 446.0,205.7 447.5,205.8 449.0,205.9 450.5,205.9 452.1,205.9 453.6,205.9 455.1,205.8 456.6,205.7 458.1,205.4 459.6,205.0 461.1,204.3 462.6,203.2 464.1,201.6 465.6,199.4 467.2,196.3 468.7,192.2 470.2,187.1 471.7,180.9 473.2,173.7 474.7,165.8 476.2,157.6 477.7,149.5 479.2,142.1 480.8,136.1 482.3,132.0 483.8,130.1 485.3,130.6 486.8,133.6 488.3,138.6 489.8,145.2 491.3,153.0 492.8,161.2 494.4,169.4 495.9,177.0 497.4,183.8 498.9,189.5 500.4,194.2 501.9,197.8 503.4,200.4 504.9,202.4 506.4,203.7 507.9,204.6 509.5,205.1 511.0,205.4 512.5,205.6 514.0,205.6 515.5,205.4 517.0,205.1 518.5,204.7 520.0,204.0 521.5,203.1 523.1,201.9 524.6,200.3 526.1,198.4 527.6,196.1 529.1,193.7 530.6,191.1 532.1,188.5 533.6,186.1 535.1,184.2 536.7,182.8 538.2,182.1 539.7,182.1 541.2,182.9 542.7,184.4 544.2,186.5 545.7,188.9 547.2,191.5 548.7,194.1 550.3,196.5 551.8,198.7 553.3,200.6 554.8,202.1 556.3,203.3 557.8,204.1 559.3,204.8 560.8,205.2 562.3,205.5 563.8,205.7 565.4,205.8 566.9,205.9 568.4,206.0 569.9,206.0 571.4,206.0 572.9,206.0 574.4,206.0 575.9,206.0 577.4,206.0 579.0,206.0 580.5,206.0 582.0,206.0 583.5,206.0 585.0,206.0" fill="none" stroke="#2563eb" stroke-width="2" stroke-linecap="round" stroke-linejoin="round"/>
<rect x="475.8" y="130" width="18.899999999999995" height="80" fill="#dc2626" opacity="0.18"/>
<rect x="650" y="105" width="260" height="135" rx="8" fill="white" stroke="#e5e7eb"/>
<text x="664" y="129" font-family="Arial, Helvetica, sans-serif" font-size="14" font-weight="700" fill="#111827" text-anchor="start">Selected range bin</text>
<line x1="662" y1="214" x2="898" y2="214" stroke="#e5e7eb" stroke-width="1.0"/>
<circle cx="760.0" cy="170.0" r="5" fill="#dc2626" stroke="white" stroke-width="2"/>
<text x="760" y="160" font-family="Arial, Helvetica, sans-serif" font-size="12" font-weight="700" fill="#dc2626" text-anchor="middle">ROI</text><text x="690" y="215" font-family="Arial, Helvetica, sans-serif" font-size="13" font-weight="400" fill="#64748b" text-anchor="start">complex z(t) from selected bin</text>
<rect x="50" y="285" width="860" height="110" rx="8" fill="white" stroke="#e5e7eb"/>
<text x="64" y="309" font-family="Arial, Helvetica, sans-serif" font-size="14" font-weight="700" fill="#111827" text-anchor="start">Range relation</text>
<line x1="62" y1="369" x2="898" y2="369" stroke="#e5e7eb" stroke-width="1.0"/>
<text x="80" y="335" font-family="Arial, Helvetica, sans-serif" font-size="18" font-weight="700" fill="#2563eb" text-anchor="start">R = c f_b / (2S),  S = B / T_c</text>
<rect x="44" y="472" width="420" height="34" rx="8" fill="#eff6ff" stroke="#bfdbfe"/>
<text x="58" y="495" font-family="Arial, Helvetica, sans-serif" font-size="13" font-weight="700" fill="#2563eb" text-anchor="start">range FFT</text>
<text x="488" y="492" font-family="Arial, Helvetica, sans-serif" font-size="12" font-weight="400" fill="#64748b" text-anchor="start">Figure: ROI selection isolates the radar return used for phase displacement.</text>
</svg>