<svg xmlns="http://www.w3.org/2000/svg" width="960" height="540" viewBox="0 0 960 540">
<rect width="100%" height="100%" fill="#ffffff"/>
<text x="28" y="38" font-family="Arial, Helvetica, sans-serif" font-size="24" font-weight="700" fill="#111827" text-anchor="start">SCG axis selection and vector magnitude</text>
<text x="28" y="62" font-family="Arial, Helvetica, sans-serif" font-size="13" font-weight="400" fill="#64748b" text-anchor="start">MPU6050 axes are parsed and transformed into an SCG-like analysis waveform.</text>
<rect x="28" y="78" width="904" height="380" rx="12" fill="#f8fafc" stroke="#e5e7eb"/>
<rect x="50" y="105" width="260" height="135" rx="8" fill="white" stroke="#e5e7eb"/>
<text x="64" y="129" font-family="Arial, Helvetica, sans-serif" font-size="14" font-weight="700" fill="#111827" text-anchor="start">ax, ay, az</text>
<line x1="62" y1="214" x2="298" y2="214" stroke="#e5e7eb" stroke-width="1.0"/>
<polyline points="70.0,169.9 71.8,169.5 73.5,169.5 75.3,169.9 77.1,170.6 78.8,171.4 80.6,172.4 82.4,173.3 84.1,174.1 85.9,174.7 87.6,175.1 89.4,175.3 91.2,175.3 92.9,175.1 94.7,174.8 96.5,174.5 98.2,174.3 100.0,174.2 101.8,174.4 103.5,174.9 105.3,175.8 107.1,177.0 108.8,178.6 110.6,180.5 112.4,182.6 114.1,184.8 115.9,187.0 117.6,189.1 119.4,191.0 121.2,192.6 122.9,193.7 124.7,194.3 126.5,194.3 128.2,193.9 130.0,192.9 131.8,191.5 133.5,189.8 135.3,187.9 137.1,185.8 138.8,183.8 140.6,181.9 142.4,180.2 144.1,178.7 145.9,177.6 147.6,176.9 149.4,176.4 151.2,176.3 152.9,176.3 154.7,176.4 156.5,176.6 158.2,176.7 160.0,176.6 161.8,176.3 163.5,175.9 165.3,175.1 167.1,174.2 168.8,173.1 170.6,171.9 172.4,170.7 174.1,169.7 175.9,168.8 177.6,168.3 179.4,168.1 181.2,168.4 182.9,169.2 184.7,170.5 186.5,172.2 188.2,174.3 190.0,176.7 191.8,179.2 193.5,181.7 195.3,184.2 197.1,186.4 198.8,188.3 200.6,189.9 202.4,190.9 204.1,191.5 205.9,191.6 207.6,191.3 209.4,190.6 211.2,189.7 212.9,188.6 214.7,187.5 216.5,186.4 218.2,185.4 220.0,184.6 221.8,184.1 223.5,183.8 225.3,183.7 227.1,183.7 228.8,183.9 230.6,184.1 232.4,184.2 234.1,184.1 235.9,183.8 237.6,183.2 239.4,182.3 241.2,181.0 242.9,179.4 244.7,177.5 246.5,175.5 248.2,173.4 250.0,171.3 251.8,169.4 253.5,167.8 255.3,166.6 257.1,165.9 258.8,165.6 260.6,165.9 262.4,166.7 264.1,168.0 265.9,169.7 267.6,171.7 269.4,173.8 271.2,176.0 272.9,178.2 274.7,180.1 276.5,181.9 278.2,183.2 280.0,184.3" fill="none" stroke="#2563eb" stroke-width="1.8" stroke-linecap="round" stroke-linejoin="round"/><polyline points="70.0,190.0 71.8,191.2 73.5,192.5 75.3,193.9 77.1,195.3 78.8,196.5 80.6,197.6 82.4,198.4 84.1,199.0 85.9,199.3 87.6,199.5 89.4,199.5 91.2,199.4 92.9,199.4 94.7,199.5 96.5,199.7 98.2,200.2 100.0,200.9 101.8,201.8 103.5,203.0 105.3,204.4 107.1,205.9 108.8,207.4 110.6,208.9 112.4,210.2 114.1,211.3 115.9,212.0 117.6,212.2 119.4,212.1 121.2,211.5 122.9,210.4 124.7,208.9 126.5,207.1 128.2,205.1 130.0,202.9 131.8,200.8 133.5,198.7 135.3,196.8 137.1,195.2 138.8,194.0 140.6,193.1 142.4,192.6 144.1,192.4 145.9,192.6 147.6,192.9 149.4,193.4 151.2,193.9 152.9,194.4 154.7,194.9 156.5,195.1 158.2,195.2 160.0,195.1 161.8,194.8 163.5,194.4 165.3,193.9 167.1,193.4 168.8,193.0 170.6,192.8 172.4,192.8 174.1,193.2 175.9,193.9 177.6,194.9 179.4,196.4 181.2,198.1 182.9,200.0 184.7,202.2 186.5,204.3 188.2,206.4 190.0,208.3 191.8,209.9 193.5,211.2 195.3,212.0 197.1,212.3 198.8,212.2 200.6,211.7 202.4,210.8 204.1,209.5 205.9,208.1 207.6,206.5 209.4,205.0 211.2,203.5 212.9,202.1 214.7,201.0 216.5,200.1 218.2,199.6 220.0,199.2 221.8,199.0 223.5,199.0 225.3,199.1 227.1,199.1 228.8,199.0 230.6,198.8 232.4,198.4 234.1,197.8 235.9,196.9 237.6,195.8 239.4,194.5 241.2,193.2 242.9,191.8 244.7,190.6 246.5,189.5 248.2,188.7 250.0,188.3 251.8,188.3 253.5,188.8 255.3,189.7 257.1,191.0 258.8,192.7 260.6,194.7 262.4,196.9 264.1,199.1 265.9,201.3 267.6,203.3 269.4,205.1 271.2,206.6 272.9,207.7 274.7,208.4 276.5,208.7 278.2,208.7 280.0,208.4" fill="none" stroke="#16a34a" stroke-width="1.8" stroke-linecap="round" stroke-linejoin="round"/><polyline points="70.0,217.4 71.8,219.0 73.5,220.5 75.3,221.7 77.1,222.7 78.8,223.3 80.6,223.7 82.4,223.8 84.1,223.8 85.9,223.7 87.6,223.5 89.4,223.4 91.2,223.3 92.9,223.5 94.7,223.8 96.5,224.3 98.2,225.0 100.0,225.8 101.8,226.7 103.5,227.6 105.3,228.4 107.1,229.0 108.8,229.4 110.6,229.4 112.4,229.1 114.1,228.4 115.9,227.3 117.6,225.9 119.4,224.1 121.2,222.2 122.9,220.1 124.7,217.9 126.5,215.9 128.2,214.0 130.0,212.5 131.8,211.2 133.5,210.4 135.3,210.0 137.1,209.9 138.8,210.2 140.6,210.9 142.4,211.7 144.1,212.7 145.9,213.8 147.6,214.8 149.4,215.7 151.2,216.4 152.9,217.0 154.7,217.3 156.5,217.5 158.2,217.5 160.0,217.4 161.8,217.3 163.5,217.2 165.3,217.3 167.1,217.6 168.8,218.0 170.6,218.8 172.4,219.8 174.1,221.1 175.9,222.6 177.6,224.2 179.4,225.9 181.2,227.5 182.9,229.0 184.7,230.3 186.5,231.2 188.2,231.8 190.0,231.9 191.8,231.6 193.5,230.9 195.3,229.7 197.1,228.3 198.8,226.5 200.6,224.7 202.4,222.8 204.1,220.9 205.9,219.3 207.6,217.8 209.4,216.6 211.2,215.7 212.9,215.2 214.7,214.9 216.5,214.8 218.2,215.0 220.0,215.2 221.8,215.5 223.5,215.8 225.3,215.9 227.1,215.9 228.8,215.7 230.6,215.3 232.4,214.8 234.1,214.1 235.9,213.4 237.6,212.7 239.4,212.1 241.2,211.7 242.9,211.5 244.7,211.7 246.5,212.2 248.2,213.1 250.0,214.4 251.8,215.9 253.5,217.8 255.3,219.8 257.1,221.9 258.8,224.0 260.6,225.9 262.4,227.6 264.1,229.0 265.9,230.0 267.6,230.6 269.4,230.8 271.2,230.6 272.9,230.0 274.7,229.1 276.5,228.1 278.2,226.9 280.0,225.6" fill="none" stroke="#f97316" stroke-width="1.8" stroke-linecap="round" stroke-linejoin="round"/>
<rect x="350" y="105" width="260" height="135" rx="8" fill="white" stroke="#e5e7eb"/>
<text x="364" y="129" font-family="Arial, Helvetica, sans-serif" font-size="14" font-weight="700" fill="#111827" text-anchor="start">Vector magnitude</text>
<line x1="362" y1="214" x2="598" y2="214" stroke="#e5e7eb" stroke-width="1.0"/>
<polyline points="370.0,200.0 371.4,200.0 372.8,200.0 374.2,200.0 375.6,200.0 377.0,200.0 378.5,200.0 379.9,200.0 381.3,200.0 382.7,200.0 384.1,200.0 385.5,200.0 386.9,200.0 388.3,200.0 389.7,200.0 391.1,200.0 392.6,200.0 394.0,199.9 395.4,199.9 396.8,199.8 398.2,199.6 399.6,199.3 401.0,199.0 402.4,198.5 403.8,197.7 405.2,196.7 406.6,195.5 408.1,193.8 409.5,191.9 410.9,189.6 412.3,187.1 413.7,184.4 415.1,181.7 416.5,179.1 417.9,176.7 419.3,174.9 420.7,173.6 422.1,173.0 423.6,173.2 425.0,174.1 426.4,175.7 427.8,177.8 429.2,180.3 430.6,183.0 432.0,185.8 433.4,188.4 434.8,190.8 436.2,192.9 437.7,194.7 439.1,196.1 440.5,197.3 441.9,198.1 443.3,198.7 444.7,199.2 446.1,199.4 447.5,199.6 448.9,199.7 450.3,199.7 451.7,199.7 453.2,199.6 454.6,199.4 456.0,199.1 457.4,198.7 458.8,198.2 460.2,197.5 461.6,196.6 463.0,195.5 464.4,194.0 465.8,192.2 467.2,190.1 468.7,187.6 470.1,184.7 471.5,181.6 472.9,178.1 474.3,174.5 475.7,170.9 477.1,167.3 478.5,163.9 479.9,160.9 481.3,158.4 482.8,156.5 484.2,155.4 485.6,155.0 487.0,155.4 488.4,156.6 489.8,158.6 491.2,161.1 492.6,164.1 494.0,167.5 495.4,171.0 496.8,174.6 498.3,178.0 499.7,181.2 501.1,184.1 502.5,186.5 503.9,188.5 505.3,190.0 506.7,191.0 508.1,191.5 509.5,191.5 510.9,191.1 512.3,190.3 513.8,189.2 515.2,187.9 516.6,186.3 518.0,184.7 519.4,183.1 520.8,181.5 522.2,180.1 523.6,178.9 525.0,178.1 526.4,177.6 527.9,177.5 529.3,177.8 530.7,178.5 532.1,179.5 533.5,180.9 534.9,182.4 536.3,184.2 537.7,186.0 539.1,187.8 540.5,189.6 541.9,191.3 543.4,192.8 544.8,194.2 546.2,195.4 547.6,196.4 549.0,197.2 550.4,197.9 551.8,198.5 553.2,198.9 554.6,199.2 556.0,199.4 557.4,199.6 558.9,199.7 560.3,199.8 561.7,199.9 563.1,199.9 564.5,200.0 565.9,200.0 567.3,200.0 568.7,200.0 570.1,200.0 571.5,200.0 573.0,200.0 574.4,200.0 575.8,200.0 577.2,200.0 578.6,200.0 580.0,200.0" fill="none" stroke="#7c3aed" stroke-width="2.4" stroke-linecap="round" stroke-linejoin="round"/>
<rect x="650" y="105" width="260" height="135" rx="8" fill="white" stroke="#e5e7eb"/>
<text x="664" y="129" font-family="Arial, Helvetica, sans-serif" font-size="14" font-weight="700" fill="#111827" text-anchor="start">SCG analysis signal</text>
<line x1="662" y1="214" x2="898" y2="214" stroke="#e5e7eb" stroke-width="1.0"/>
<polyline points="668.0,181.6 669.9,179.2 671.8,177.4 673.6,176.3 675.5,175.9 677.4,175.9 679.3,176.4 681.2,177.1 683.1,178.0 684.9,178.8 686.8,179.4 688.7,179.8 690.6,179.8 692.5,179.5 694.4,178.8 696.2,177.9 698.1,176.8 700.0,175.7 701.9,174.8 703.8,174.3 705.6,174.2 707.5,174.6 709.4,175.8 711.3,177.6 713.2,180.1 715.1,183.3 716.9,186.9 718.8,190.8 720.7,194.9 722.6,198.9 724.5,202.6 726.4,205.8 728.2,208.3 730.1,210.1 732.0,211.1 733.9,211.2 735.8,210.5 737.6,209.0 739.5,207.0 741.4,204.5 743.3,201.8 745.2,199.0 747.1,196.3 748.9,193.9 750.8,191.9 752.7,190.4 754.6,189.3 756.5,188.6 758.4,188.3 760.2,188.3 762.1,188.3 764.0,188.4 765.9,188.3 767.8,187.8 769.6,187.0 771.5,185.8 773.4,184.0 775.3,181.9 777.2,179.5 779.1,176.8 780.9,174.1 782.8,171.6 784.7,169.4 786.6,167.7 788.5,166.7 790.4,166.4 792.2,167.0 794.1,168.5 796.0,170.7 797.9,173.6 799.8,177.2 801.6,181.1 803.5,185.1 805.4,189.2 807.3,193.0 809.2,196.4 811.1,199.3 812.9,201.4 814.8,202.9 816.7,203.7 818.6,203.8 820.5,203.4 822.4,202.6 824.2,201.5 826.1,200.4 828.0,199.3 829.9,198.3 831.8,197.7 833.6,197.5 835.5,197.5 837.4,198.0 839.3,198.6 841.2,199.4 843.1,200.1 844.9,200.7 846.8,200.9 848.7,200.7 850.6,199.9 852.5,198.5 854.4,196.4 856.2,193.7 858.1,190.4 860.0,186.8 861.9,182.9 863.8,179.0 865.6,175.3 867.5,171.9 869.4,169.1 871.3,167.1 873.2,165.8 875.1,165.4 876.9,165.9 878.8,167.2 880.7,169.2 882.6,171.7 884.5,174.6 886.4,177.7 888.2,180.7 890.1,183.6 892.0,186.2" fill="none" stroke="#2563eb" stroke-width="2.2" stroke-linecap="round" stroke-linejoin="round"/>
<text x="668" y="232" font-family="Arial, Helvetica, sans-serif" font-size="12" font-weight="400" fill="#64748b" text-anchor="start">band-passed morphology</text>
<rect x="50" y="285" width="860" height="110" rx="8" fill="white" stroke="#e5e7eb"/>
<text x="64" y="309" font-family="Arial, Helvetica, sans-serif" font-size="14" font-weight="700" fill="#111827" text-anchor="start">Formula</text>
<line x1="62" y1="369" x2="898" y2="369" stroke="#e5e7eb" stroke-width="1.0"/>
<text x="80" y="335" font-family="Arial, Helvetica, sans-serif" font-size="17" font-weight="700" fill="#2563eb" text-anchor="start">vmag[n] = sqrt(ax[n]^2 + ay[n]^2 + az[n]^2)</text>
<rect x="44" y="472" width="420" height="34" rx="8" fill="#eff6ff" stroke="#bfdbfe"/>
<text x="58" y="495" font-family="Arial, Helvetica, sans-serif" font-size="13" font-weight="700" fill="#2563eb" text-anchor="start">8-column MPU6050 CSV</text>
<text x="488" y="492" font-family="Arial, Helvetica, sans-serif" font-size="12" font-weight="400" fill="#64748b" text-anchor="start">Figure: axis/magnitude choice changes the mechanical morphology used downstream.</text>
</svg>