<svg xmlns="http://www.w3.org/2000/svg" width="960" height="540" viewBox="0 0 960 540">
<rect width="100%" height="100%" fill="#ffffff"/>
<text x="28" y="38" font-family="Arial, Helvetica, sans-serif" font-size="24" font-weight="700" fill="#111827" text-anchor="start">SCG AO/AC reference timing</text>
<text x="28" y="62" font-family="Arial, Helvetica, sans-serif" font-size="13" font-weight="400" fill="#64748b" text-anchor="start">SCG fiducial morphology provides reference timing for radar comparison.</text>
<rect x="28" y="78" width="904" height="380" rx="12" fill="#f8fafc" stroke="#e5e7eb"/>
<rect x="50" y="105" width="860" height="170" rx="8" fill="white" stroke="#e5e7eb"/>
<text x="64" y="129" font-family="Arial, Helvetica, sans-serif" font-size="14" font-weight="700" fill="#111827" text-anchor="start">SCG beat morphology</text>
<line x1="62" y1="249" x2="898" y2="249" stroke="#e5e7eb" stroke-width="1.0"/>
<polyline points="90.0,215.0 95.1,215.0 100.2,215.0 105.3,215.0 110.4,215.0 115.5,215.0 120.6,215.0 125.7,215.0 130.8,215.0 135.9,215.0 141.0,215.0 146.1,215.0 151.2,215.0 156.3,215.0 161.4,215.0 166.5,215.0 171.6,215.0 176.7,215.0 181.8,215.0 186.9,215.0 192.0,215.0 197.1,215.0 202.2,215.0 207.3,215.0 212.4,214.9 217.5,214.8 222.6,214.7 227.7,214.5 232.8,214.1 237.9,213.6 243.0,212.8 248.1,211.7 253.2,210.2 258.3,208.2 263.4,205.8 268.5,203.0 273.6,199.9 278.7,196.7 283.8,193.7 288.9,191.0 294.0,189.0 299.1,187.8 304.2,187.5 309.3,188.3 314.4,189.8 319.5,192.0 324.6,194.5 329.7,196.7 334.8,198.2 339.9,198.5 345.0,196.9 350.1,193.3 355.2,187.9 360.3,181.2 365.4,174.2 370.5,168.4 375.6,165.0 380.7,164.9 385.8,168.1 390.9,174.1 396.0,181.8 401.1,189.9 406.2,197.4 411.3,203.5 416.4,208.0 421.5,211.0 426.6,212.9 431.7,214.0 436.8,214.6 441.9,214.9 447.0,215.1 452.1,215.3 457.2,215.5 462.3,215.8 467.4,216.3 472.6,217.0 477.7,218.1 482.8,219.4 487.9,221.1 493.0,223.2 498.1,225.5 503.2,228.1 508.3,230.7 513.4,233.1 518.5,235.1 523.6,236.6 528.7,237.2 533.8,237.0 538.9,235.8 544.0,233.8 549.1,231.1 554.2,227.8 559.3,224.1 564.4,220.2 569.5,216.3 574.6,212.4 579.7,208.8 584.8,205.5 589.9,202.6 595.0,200.4 600.1,198.8 605.2,198.0 610.3,197.9 615.4,198.5 620.5,199.7 625.6,201.4 630.7,203.3 635.8,205.3 640.9,207.3 646.0,209.1 651.1,210.6 656.2,211.9 661.3,212.9 666.4,213.6 671.5,214.1 676.6,214.4 681.7,214.7 686.8,214.8 691.9,214.9 697.0,214.9 702.1,215.0 707.2,215.0 712.3,215.0 717.4,215.0 722.5,215.0 727.6,215.0 732.7,215.0 737.8,215.0 742.9,215.0 748.0,215.0 753.1,215.0 758.2,215.0 763.3,215.0 768.4,215.0 773.5,215.0 778.6,215.0 783.7,215.0 788.8,215.0 793.9,215.0 799.0,215.0 804.1,215.0 809.2,215.0 814.3,215.0 819.4,215.0 824.5,215.0 829.6,215.0 834.7,215.0 839.8,215.0 844.9,215.0 850.0,215.0" fill="none" stroke="#2563eb" stroke-width="2.5" stroke-linecap="round" stroke-linejoin="round"/><circle cx="378.8" cy="165.0" r="5" fill="#dc2626" stroke="white" stroke-width="2"/>
<text x="378.8" y="155" font-family="Arial, Helvetica, sans-serif" font-size="12" font-weight="700" fill="#dc2626" text-anchor="middle">AO</text><circle cx="530.8" cy="237.0" r="5" fill="#f97316" stroke="white" stroke-width="2"/>
<text x="530.8" y="227" font-family="Arial, Helvetica, sans-serif" font-size="12" font-weight="700" fill="#f97316" text-anchor="middle">AC</text>
<rect x="50" y="315" width="860" height="80" rx="8" fill="white" stroke="#e5e7eb"/>
<text x="64" y="339" font-family="Arial, Helvetica, sans-serif" font-size="14" font-weight="700" fill="#111827" text-anchor="start">Use</text>
<line x1="62" y1="369" x2="898" y2="369" stroke="#e5e7eb" stroke-width="1.0"/>
<text x="80" y="360" font-family="Arial, Helvetica, sans-serif" font-size="16" font-weight="400" fill="#64748b" text-anchor="start">SCG AO/AC is a mechanical reference for comparison; it is not echocardiographic ground truth.</text>
<rect x="44" y="472" width="420" height="34" rx="8" fill="#eff6ff" stroke="#bfdbfe"/>
<text x="58" y="495" font-family="Arial, Helvetica, sans-serif" font-size="13" font-weight="700" fill="#2563eb" text-anchor="start">Δt = radar - SCG</text>
<text x="488" y="492" font-family="Arial, Helvetica, sans-serif" font-size="12" font-weight="400" fill="#64748b" text-anchor="start">Figure: reference timing is beat-relative and aligned to ECG R-peaks.</text>
</svg>