<svg xmlns="http://www.w3.org/2000/svg" width="960" height="540" viewBox="0 0 960 540">
<rect width="100%" height="100%" fill="#ffffff"/>
<text x="28" y="38" font-family="Arial, Helvetica, sans-serif" font-size="24" font-weight="700" fill="#111827" text-anchor="start">SQI accept/reject example</text>
<text x="28" y="62" font-family="Arial, Helvetica, sans-serif" font-size="13" font-weight="400" fill="#64748b" text-anchor="start">Good morphology is accepted; motion-contaminated morphology is rejected.</text>
<rect x="28" y="78" width="904" height="380" rx="12" fill="#f8fafc" stroke="#e5e7eb"/>
<rect x="50" y="105" width="390" height="150" rx="8" fill="white" stroke="#e5e7eb"/>
<text x="64" y="129" font-family="Arial, Helvetica, sans-serif" font-size="14" font-weight="700" fill="#111827" text-anchor="start">Accepted beat</text>
<line x1="62" y1="229" x2="428" y2="229" stroke="#e5e7eb" stroke-width="1.0"/>
<polyline points="68.0,190.2 71.0,187.5 73.9,185.5 76.9,184.3 79.9,183.7 82.9,183.8 85.8,184.3 88.8,185.1 91.8,186.1 94.8,187.0 97.7,187.7 100.7,188.1 103.7,188.1 106.7,187.7 109.6,187.0 112.6,186.0 115.6,184.8 118.6,183.6 121.5,182.6 124.5,182.0 127.5,181.8 130.5,182.4 133.4,183.6 136.4,185.7 139.4,188.5 142.4,192.0 145.3,196.0 148.3,200.4 151.3,204.9 154.3,209.3 157.2,213.4 160.2,217.0 163.2,219.8 166.2,221.8 169.1,222.9 172.1,223.0 175.1,222.2 178.1,220.6 181.0,218.3 184.0,215.5 187.0,212.5 190.0,209.4 192.9,206.5 195.9,203.8 198.9,201.6 201.9,199.9 204.8,198.6 207.8,197.9 210.8,197.6 213.8,197.5 216.7,197.6 219.7,197.7 222.7,197.5 225.7,197.0 228.6,196.1 231.6,194.7 234.6,192.8 237.6,190.5 240.5,187.7 243.5,184.8 246.5,181.8 249.5,179.0 252.4,176.5 255.4,174.7 258.4,173.5 261.4,173.3 264.3,173.9 267.3,175.5 270.3,178.0 273.3,181.3 276.2,185.2 279.2,189.5 282.2,194.0 285.2,198.6 288.1,202.8 291.1,206.6 294.1,209.7 297.1,212.2 300.0,213.8 303.0,214.7 306.0,214.8 309.0,214.4 311.9,213.5 314.9,212.3 317.9,211.0 320.9,209.7 323.8,208.7 326.8,208.0 329.8,207.7 332.8,207.8 335.7,208.3 338.7,209.0 341.7,209.9 344.7,210.7 347.6,211.3 350.6,211.6 353.6,211.3 356.6,210.5 359.5,208.9 362.5,206.5 365.5,203.5 368.5,199.9 371.4,195.9 374.4,191.6 377.4,187.2 380.4,183.1 383.3,179.4 386.3,176.3 389.3,174.0 392.3,172.6 395.2,172.1 398.2,172.7 401.2,174.1 404.2,176.3 407.1,179.1 410.1,182.3 413.1,185.7 416.1,189.2 419.0,192.3 422.0,195.2" fill="none" stroke="#2563eb" stroke-width="2.2" stroke-linecap="round" stroke-linejoin="round"/>
<circle cx="201.9" cy="199.9" r="5" fill="#dc2626" stroke="white" stroke-width="2"/>
<text x="201.8655462184874" y="189.85325833576147" font-family="Arial, Helvetica, sans-serif" font-size="12" font-weight="700" fill="#dc2626" text-anchor="middle">AO</text>
<circle cx="288.1" cy="202.8" r="5" fill="#f97316" stroke="white" stroke-width="2"/>
<text x="288.1344537815126" y="192.79169981625077" font-family="Arial, Helvetica, sans-serif" font-size="12" font-weight="700" fill="#f97316" text-anchor="middle">AC</text>
<text x="68" y="247" font-family="Arial, Helvetica, sans-serif" font-size="12" font-weight="400" fill="#64748b" text-anchor="start">high template corr, low resp ratio</text>
<rect x="520" y="105" width="390" height="150" rx="8" fill="white" stroke="#e5e7eb"/>
<text x="534" y="129" font-family="Arial, Helvetica, sans-serif" font-size="14" font-weight="700" fill="#111827" text-anchor="start">Rejected beat</text>
<line x1="532" y1="229" x2="898" y2="229" stroke="#e5e7eb" stroke-width="1.0"/>
<polyline points="538.0,203.4 541.0,193.6 543.9,193.5 546.9,200.3 549.9,203.2 552.9,197.4 555.8,190.1 558.8,191.0 561.8,199.6 564.8,205.4 567.7,201.7 570.7,193.7 573.7,192.1 576.7,198.6 579.6,204.1 582.6,200.1 585.6,190.4 588.6,185.9 591.5,190.8 594.5,197.3 597.5,196.0 600.5,188.3 603.4,184.7 606.4,191.3 609.4,201.9 612.4,205.9 615.3,202.3 618.3,200.5 621.3,208.0 624.3,220.5 627.2,226.9 630.2,223.7 633.2,219.3 636.2,222.7 639.1,231.7 642.1,235.6 645.1,229.3 648.1,219.6 651.0,217.0 654.0,221.8 657.0,224.1 660.0,216.9 662.9,205.5 665.9,200.8 668.9,205.2 671.9,209.9 674.8,206.2 677.8,197.0 680.8,193.0 683.8,198.5 686.7,205.9 689.7,205.2 692.7,196.9 695.7,191.2 698.6,194.6 701.6,201.0 704.6,200.1 707.6,190.2 710.5,181.0 713.5,180.8 716.5,185.8 719.5,185.7 722.4,176.8 725.4,167.4 728.4,167.2 731.4,174.8 734.3,179.7 737.3,176.1 740.3,170.4 743.3,172.9 746.2,184.2 749.2,194.1 752.2,194.9 755.2,191.0 758.1,192.7 761.1,202.9 764.1,212.8 767.1,213.2 770.0,206.4 773.0,203.1 776.0,208.6 779.0,215.6 781.9,214.4 784.9,205.2 787.9,198.3 790.9,200.9 793.8,207.9 796.8,208.6 799.8,201.0 802.8,194.4 805.7,197.1 808.7,205.8 811.7,209.8 814.7,204.4 817.6,197.4 820.6,198.2 823.6,205.7 826.6,209.4 829.5,202.9 832.5,192.3 835.5,188.1 838.5,191.7 841.4,193.5 844.4,185.9 847.4,173.0 850.4,166.0 853.3,168.5 856.3,172.3 859.3,168.4 862.3,158.6 865.2,153.7 868.2,159.2 871.2,168.2 874.2,170.6 877.1,165.5 880.1,162.8 883.1,169.7 886.1,181.1 889.0,186.2 892.0,182.0" fill="none" stroke="#6b7280" stroke-width="2.2" stroke-linecap="round" stroke-linejoin="round"/>
<text x="538" y="247" font-family="Arial, Helvetica, sans-serif" font-size="12" font-weight="400" fill="#64748b" text-anchor="start">high contamination, low SQI</text>
<rect x="50" y="315" width="860" height="80" rx="8" fill="white" stroke="#e5e7eb"/>
<text x="64" y="339" font-family="Arial, Helvetica, sans-serif" font-size="14" font-weight="700" fill="#111827" text-anchor="start">SQI fusion</text>
<line x1="62" y1="369" x2="898" y2="369" stroke="#e5e7eb" stroke-width="1.0"/>
<text x="80" y="360" font-family="Arial, Helvetica, sans-serif" font-size="15" font-weight="700" fill="#2563eb" text-anchor="start">SQI = 0.25 amp + 0.25 cardiac + 0.25 template + 0.25 slope, penalized by respiration ratio</text>
<rect x="44" y="472" width="420" height="34" rx="8" fill="#eff6ff" stroke="#bfdbfe"/>
<text x="58" y="495" font-family="Arial, Helvetica, sans-serif" font-size="13" font-weight="700" fill="#2563eb" text-anchor="start">accepted if SQI ≥ min_sqi_accept</text>
<text x="488" y="492" font-family="Arial, Helvetica, sans-serif" font-size="12" font-weight="400" fill="#64748b" text-anchor="start">Figure: rejection is required for beat-wise radar AO/AC reliability.</text>
</svg>